<svg xmlns="http://www.w3.org/2000/svg" xmlns:xlink="http://www.w3.org/1999/xlink" width="100%" height="100%" color-interpolation-filters="sRGB" preserveAspectRatio="xMidYMid meet" version="1.0" viewBox="0 0 96.232 96.232" style="margin:auto"><rect width="100%" height="100%" x="0" y="0" fill="#fff" fill-opacity="0" class="background"/><g fill="#5da62d" class="icon-text-wrapper icon-svg-group iconsvg"><g fill="#41B349" class="iconsvg-imagesvg icon_container" transform="translate(13.74743705695058, 13.74743705695058)"><rect width="68.737" height="68.737" x="0" y="0" fill="#5da62d" fill-opacity="0" stroke-width="2" class="image-rect"/><svg width="68.737" height="68.737" x="0" y="0" class="image-svg-svg bn" viewBox="0 0 60 60.533" style="overflow:visible"><g hollow-target="iconBnOutline"><g mask="url(#b32a48ff-090b-48a0-81a5-78aa13a69877)"><svg xmlns="http://www.w3.org/2000/svg" viewBox="0 0 494.995 499.391" style="overflow:visible" width="60" height="60.533" x="0" y="0" filter="url(#u3NUmL7_H1NNjZ5jHV3Gb)" filtersec="colorsf8673697949"><g><path fill="#000" d="M478.41 237.11c0 .95.14 1.88.17 2.76s0 1.72 0 2.48a12 12 0 0 1-.43 3.52c-.38 1-.74.72-1-.59a22.36 22.36 0 0 1-.34-2.76c-.1-1.17-.09-2.59-.23-4.24-.2-3-.4-6-.59-9.05 0-.38-.05-.76-.09-1.13l-.13-1.13-.28-2.25-.56-4.5-.28-2.25-.14-1.12-.2-1.12-.81-4.46-.81-4.46-.2-1.12-.26-1.1-.52-2.2-1-4.42c-.36-1.46-.65-2.95-1.1-4.39l-2.52-8.7c-1.91-5.73-3.78-11.48-6.09-17.07a224.76 224.76 0 0 0-16.53-33.34 238.32 238.32 0 0 0-21.86-30.12A223.51 223.51 0 0 0 355 50.77l-3.81-1.94-1.91-1c-.63-.33-1.3-.6-1.94-.9l-7.8-3.52c-2.63-1.1-5.3-2.1-7.95-3.16l-2-.79-1-.39-1-.34-4.05-1.38c-5.36-1.94-10.88-3.38-16.36-5l-8.32-1.95-2.05-.4c-.69-.16-1.4-.26-2.1-.4l-4.2-.76-4.21-.77c-.7-.14-1.41-.23-2.11-.32l-2.12-.27c-2.83-.36-5.65-.77-8.48-1.08l-8.53-.68-2.13-.17c-.71-.05-1.43-.05-2.14-.08l-4.27-.12c-5.71-.3-11.41 0-17.11.1-5.69.45-11.4.69-17 1.52a227.16 227.16 0 0 1 89.5 7l4 1.15 2 .58c.65.2 1.3.44 1.95.66l7.8 2.7 1 .33.95.39 1.92.76 3.83 1.54c1.27.52 2.56 1 3.82 1.55l3.75 1.72 3.75 1.71 1.88.86c.62.29 1.22.62 1.84.93l7.33 3.79c.61.31 1.21.65 1.8 1l1.79 1 3.57 2.07c1.18.7 2.39 1.36 3.55 2.09l3.47 2.24 3.46 2.23 1.63 1.16 1.68 1.2 6.71 4.79c2.19 1.67 4.33 3.4 6.49 5.09l1.63 1.28.81.64.77.67 3.12 2.71c4.23 3.52 8.12 7.42 12.12 11.2 3.78 4 7.67 7.9 11.18 12.14l3 3.51c1 1.19 1.9 2.44 2.84 3.66l2.77 3.66c.45.61.91 1.2 1.34 1.81s.83 1.23 1.23 1.84a87.51 87.51 0 0 1 4.84 7.75c.79 1.68.6 2-1.39-.22-2.59-2.62-.46 1 .76 3.64a12.49 12.49 0 0 1-1.24-1.47c-.43-.58-.89-1.23-1.39-1.84.5.66.94 1.35 1.38 2a39.49 39.49 0 0 1 4.1 7.56c-2.77-4.29-5.35-8.59-8.32-12.59l-2.16-3.05-1.08-1.52-1.15-1.47c-1.54-2-3.07-3.93-4.62-5.91-.16 0-.43-.27-.36 0a7.66 7.66 0 0 0 1.07 3 38.19 38.19 0 0 0 2.22 3.43c.52.75 1.19 1.57 1.86 2.57s1.47 2.11 2.38 3.37l2.18 3 1.09 1.52c.35.52.68 1 1 1.57 1.35 2.09 2.7 4.19 4.06 6.28.7 1 1.3 2.13 1.92 3.21l1.87 3.25 1.87 3.25c.64 1.08 1.16 2.22 1.74 3.32l3.42 6.68 3.08 6.84c.5 1.14 1 2.27 1.52 3.43l1.36 3.49 1.37 3.48c.44 1.17 1 2.31 1.33 3.51l2.86 8.57c.86 2.88 1.58 5.78 2.33 8.58.17.69.35 1.39.54 2.11s.3 1.44.45 2.16c.28 1.43.53 2.82.74 4.05.41 2.47.6 4.29.31 4.54-.67.56-1.49 1-3.7-6.26-.19-.64-.39-1.29-.59-2s-.38-1.33-.63-2l-1.41-4.06c-.46-1.38-.94-2.78-1.41-4.19l-.36-1.06-.4-1.05c-.27-.7-.54-1.41-.82-2.11-.78-2-1.59-4.25-2.32-6.11a18.44 18.44 0 0 0-2-3.88c-1.34-1.51-3.2-6.48-4.57-9.76a78.94 78.94 0 0 0-3.94-8.94l-2.29-4.41c-.4-.73-.76-1.48-1.19-2.19l-1.28-2.15c-3.33-5.75-7-11.28-10.24-16.71a40.18 40.18 0 0 0-2.86-3.56c-.84-.89-.58-.08.4 1.43 1.08 1.7 2.08 3.23 2.92 4.7s1.53 2.88 2.2 4.21 1.28 2.58 1.9 3.83c.32.61.59 1.25.86 1.89s.55 1.28.83 1.92a46.75 46.75 0 0 1 2.2 5.77c.31 1.13.13 1.5-.39 1a19.9 19.9 0 0 1-2.89-3.62c-.69-1-1.47-2.18-2.36-3.56-.22-.35-.44-.71-.68-1.08l-.78-1.11-1.67-2.43c-.93-1.36-1.79-2.6-2.62-3.77l-.62-.87-.64-.81-1.28-1.33-2.46-3q-.6-.76-1.23-1.53c-.41-.52-.82-1-1.28-1.55l-3.78-4.37-1.81-2.11c-.58-.71-1.24-1.34-1.84-2l-3.65-4c-.61-.66-1.2-1.34-1.81-2s-1.27-1.29-1.91-1.94c-1.28-1.3-2.56-2.63-3.87-4l-1-1-1.05-1-2.14-2.07-2.17-2.19-1.14-1.12-.57-.57-.61-.55-5.1-4.62c-.8-.72-1.44-1.34-2-1.78s-1.15-.81-1.58-1.05a12 12 0 0 0-2-1.14 16.2 16.2 0 0 1-2.68-1.48c-.54-.37-1.13-.81-1.8-1.35s-1.47-1.11-2.34-1.84c-2.11-1.76-3.6-3.14-5.49-3.85-1-.34-1-.17-.37.43a48.54 48.54 0 0 0 4.1 3.12c.73.52 1.5 1.07 2.27 1.67.38.31.76.62 1.13 1s.71.74 1.06 1.14l-1.09-.78-1.12-.72-2.17-1.45q-2.13-1.44-4.15-2.87c-.66-.5-1.36-.92-2-1.36l-2-1.32c-1.33-.88-2.63-1.75-3.91-2.63l-1-.65-1-.61-1.98-1.31-3.83-2.42c-.63-.39-1.26-.81-1.9-1.19l-2-1.1-3.89-2.19c-2.52-1.48-5.05-2.76-7.3-3.83A32.52 32.52 0 0 0 332.4 62a13 13 0 0 0-1.41-.42 9 9 0 0 0-1.31-.14c-.28 0-3.21-1.11-4.87-1.77a200.85 200.85 0 0 0-37.16-10.37 241.22 241.22 0 0 0-38.34-3.66h-5.21l-2.6.05h-1.29l-1.29.11-5.14.44-2.55.22-1.26.12-1.26.18-6.5.95-1.63.23c-.54.07-1.08.14-1.62.26l-3.23.62-6.45 1.23-6.39 1.53-3.2.75-3.15.91-6.32 1.8c-2.08.68-4.15 1.41-6.23 2.1l-3.11 1c-1 .35-2 .79-3.07 1.18l-6.12 2.39c-2 .83-4 1.78-6 2.65l-3 1.34-.75.33-.73.38-1.47.74-5.87 3a204.43 204.43 0 0 0-22.34 13.83c-3.74 2.51-7.21 5.41-10.8 8.14-1.76 1.42-3.44 2.93-5.17 4.38L113 98.79c-.85.75-1.65 1.55-2.48 2.32l-5 4.65-4.72 4.89c-.78.82-1.58 1.62-2.35 2.45l-2.24 2.57c-1.48 1.71-3 3.39-4.45 5.14a223.23 223.23 0 0 0-17.43 24.57l-3.78 6.52c-.66 1.08-1.21 2.2-1.79 3.32l-1.72 3.35-1.74 3.35-1.56 3.43-1.56 3.42c-.52 1.15-1.08 2.28-1.51 3.46l-2.79 7c-.5 1.15-.87 2.36-1.28 3.54l-1.22 3.57-1.22 3.56-1 3.63-1 3.62c-.33 1.21-.74 2.4-1 3.63l-1.72 7.35c-.14.61-.3 1.22-.42 1.84l-.33 1.85-.69 3.71-.68 3.71c-.23 1.24-.34 2.5-.52 3.74l-1 7.49a207.07 207.07 0 0 0 4.26 67.43 220.23 220.23 0 0 0 30.08 70.19c1.46 2.13 3 4.29 4.47 6.49.37.55.78 1.07 1.19 1.6l1.2 1.59c.83 1.06 1.67 2.12 2.5 3.19 1.62 2.17 3.48 4.16 5.25 6.23l2.66 3.07c.91 1 1.87 2 2.79 2.94l3.44 3.64.86.91.91.86 1.81 1.74 3.58 3.5.9.88.93.84 1.85 1.68c-1.14-.91-2.33-1.79-3.45-2.77l-3.33-3-3.32-3.07c-1.08-1.06-2.11-2.18-3.16-3.27-2.08-2.19-4.2-4.34-6.07-6.66l-2.87-3.39-1.42-1.66-1.32-1.72-3.74-4.91-1-1.22c-.31-.41-.59-.84-.89-1.26l-1.77-2.53c-1.18-1.69-2.4-3.34-3.54-5.06l-3.31-5.2-1.66-2.59-1.53-2.67-3.07-5.33c-.54-.88-1-1.81-1.44-2.72l-1.4-2.74-1.41-2.73-.7-1.37c-.23-.46-.43-.93-.64-1.4l-2.93-6.49c-.24-.54-.5-1.08-.73-1.63l-.64-1.66-1.3-3.31c-1.83-4.38-3.17-8.93-4.71-13.41-.69-2.27-1.28-4.56-1.92-6.84l-1-3.42-.77-3.46-1.44-6.93-1.19-7c-.19-1.17-.44-2.33-.58-3.5l-.42-3.53-.43-3.53-.21-1.76c-.08-.58-.15-1.17-.18-1.76l-.49-7.1-.13-1.77-.07-.88v-.89l-.07-3.56-.11-3.55v-3.56l.19-7.12v-2.67l.07-.89.27-3.55.26-3.55c.11-1.18.14-2.37.32-3.55l.91-7.27.26-1.84c.08-.6.21-1.2.31-1.8l.65-3.61c.75-4.84 2-9.57 3.08-14.33.13-.6.31-1.18.48-1.77l.51-1.76 1-3.52 1-3.53 1.19-3.46 1.18-3.47.6-1.75.29-.87.34-.85 2.69-6.81a205.94 205.94 0 0 1 38.48-60.39A210.77 210.77 0 0 1 189.79 54c3.69-1 9-2.48 9.62-3.45-3.29.71-6.78 1.64-10.29 2.63L183.91 55l-2.58.88c-.86.3-1.72.56-2.55.91A207.6 207.6 0 0 0 52.71 187.64c-8.54 26.14-11.18 53.81-9.31 81.62.09 1.26.13 2.52.25 3.79l.45 3.8c.15 1.27.31 2.55.46 3.83s.29 2.57.55 3.85c.47 2.55.93 5.13 1.4 7.71.2 1.3.57 2.57.86 3.86s.61 2.56.92 3.85.59 2.58.94 3.86l1.13 3.81 1.12 3.82.56 1.91.66 1.88 2.61 7.51 2.94 7.34c.79 2.15 1.79 4.2 2.72 6.28l1.41 3.11c.48 1 .91 2.09 1.46 3.09 2.09 4 4 8.14 6.39 12l1.68 3 .84 1.48c.28.49.61 1 .9 1.44q1.83 2.88 3.65 5.76l.91 1.45 1 1.4 2 2.79 2 2.81c.32.47.64.94 1 1.4l1.05 1.36a194.7 194.7 0 0 0 31 32.85 237.34 237.34 0 0 0 26.17 18.86A238.61 238.61 0 0 0 171 444a205 205 0 0 0 45.34 13.4l2.92.53 2.94.38 5.89.77 1.47.19 1.48.12 3 .22 5.92.46c2 .08 4 .11 5.94.16l3 .07c1 0 2 .09 3 0l5.94-.17c2-.07 3.95-.05 5.92-.26a226.75 226.75 0 0 0 40.24-6.16 203.65 203.65 0 0 0 38-13.48 201 201 0 0 0 35.85-21.8l5.48-4.31c.46-.36.93-.7 1.37-1.09l1.31-1.14 2.64-2.27c3.59-3 6.86-6.26 10.26-9.41 1.66-1.62 3.23-3.33 4.85-5l2.42-2.49c.79-.85 1.53-1.74 2.3-2.6l4.6-5.22 4.33-5.43c.72-.91 1.46-1.79 2.16-2.72l2-2.81c1.35-1.88 2.75-3.73 4.06-5.64l3.8-5.81.95-1.45.48-.73.43-.75 1.76-3a203.62 203.62 0 0 0 12.54-24.8c1.65-4.18 3.47-8.09 4.88-12.2.73-2 1.53-4.07 2.2-6.19s1.26-4.3 1.86-6.55c.36-1.35.69-2.35.91-3.12a10.48 10.48 0 0 1 .56-1.65 1.68 1.68 0 0 1 .8-.95c.67-.47.07 3-1.12 7.07-.56 2.06-1.14 4.1-1.72 6.11s-1.39 3.94-2.08 5.9c-1.3 3.94-3 7.72-4.5 11.61l-.71 1.81c-.24.61-.53 1.19-.79 1.78l-1.6 3.54-1.6 3.55-.41.88-.44.87L441 346c-1.2 2.3-2.35 4.62-3.58 6.91l-3.89 6.72-1 1.68-1.06 1.63-2.11 3.26-2.11 3.27c-.7 1.08-1.5 2.11-2.24 3.16l-2.27 3.16-1.13 1.57c-.37.53-.75 1.06-1.16 1.55l-4.83 6.08c-.41.5-.79 1-1.22 1.51l-1.28 1.45-2.56 2.92-2.56 2.86-2.7 2.79-2.69 2.79c-.9.92-1.77 1.88-2.73 2.74l-5.65 5.31a229.2 229.2 0 0 1-24.36 19c-1.91 1.28-3.87 2.46-5.8 3.7l-2.91 1.94c-1 .61-2 1.14-3 1.72l-6 3.4c-2 1.08-4.09 2.08-6.13 3.13l-3.03 1.51c-1 .5-2.1.94-3.14 1.42l-6.27 2.82c-2.12.86-4.27 1.67-6.4 2.51l-3.2 1.25c-1.08.4-2.17.74-3.26 1.11l-6.52 2.18c-2.19.66-4.41 1.24-6.61 1.87l-3.31.93c-1.11.3-2.24.52-3.35.78l-6.7 1.52a208.38 208.38 0 0 1-27.24 3.59 223.49 223.49 0 0 1-45-1.54 204.49 204.49 0 0 1-43.73-10.95 216 216 0 0 1-31.66-15l-3.8-2.19-.95-.55-.92-.59-1.84-1.19-3.69-2.37-1.84-1.19c-.61-.39-1.19-.84-1.79-1.26-2.37-1.71-4.77-3.38-7.13-5.11l-6.88-5.43A218 218 0 0 1 92.58 390c-3.9-4.36-7.48-9-11-13.64l-5.08-7.15-4.73-7.38c-.34-.55-.72-1.09-1-1.65l-1-1.69-1.94-3.38-1.95-3.38-1.78-3.46-1.78-3.47c-.6-1.15-1.22-2.3-1.73-3.5l-3.24-7.1A236.07 236.07 0 0 1 47 304.63c.36 2.07.79 4.25 1.28 6.52.26 1.13.49 2.3.8 3.46l1.06 3.52 1.12 3.62c.39 1.21.76 2.45 1.26 3.66.94 2.43 1.92 4.89 2.91 7.37a238.7 238.7 0 0 0 15.67 30.1 219.33 219.33 0 0 0 19.78 27.17l1.89 2.24c.64.74 1.24 1.52 1.93 2.22l4 4.28 2 2.14c.67.72 1.4 1.37 2.1 2.06l4.24 4.08c1.38 1.39 2.91 2.63 4.37 3.93l4.44 3.86c1.53 1.24 3.08 2.44 4.62 3.66l2.31 1.82 1.15.91c.39.3.8.57 1.2.86a230.66 230.66 0 0 0 40.57 23.82c2.37 1.18 4.85 2.14 7.33 3.16s4.95 2.08 7.53 2.91 5.12 1.81 7.72 2.65l7.9 2.28a216.92 216.92 0 0 0 32.57 6 230.21 230.21 0 0 0 54.39-1.19 220.24 220.24 0 0 0 26.64-5.74c4.41-1.12 8.69-2.68 13-4.09.54-.19 1.09-.35 1.62-.55l1.59-.62 3.17-1.25 3.18-1.23 1.59-.62 1.56-.7a215.84 215.84 0 0 0 67.25-45.46 212.27 212.27 0 0 0 45.59-67.38 221.82 221.82 0 0 0 17.55-82.79 271.78 271.78 0 0 1-3.22 38.2 167.18 167.18 0 0 1-10.35 37.21c-1.67 3.72-3.19 8-5.19 12.24-.47 1.06-.95 2.14-1.42 3.22s-.92 2.17-1.48 3.2c-1.07 2.1-2.14 4.18-3.18 6.21a226.75 226.75 0 0 1-18.81 29.22l-5.4 6.82-5.71 6.57c-.48.54-.94 1.1-1.44 1.63l-1.5 1.57-3 3.14-1.51 1.57c-.5.53-1 1.06-1.53 1.54l-3.16 3-3.15 3a20 20 0 0 1-1.62 1.45l-1.65 1.42-3.29 2.85-1.64 1.42c-.56.46-1.14.9-1.71 1.35-2.29 1.78-4.55 3.59-6.85 5.35l-7.09 5a224.59 224.59 0 0 1-30.19 17.23 208.64 208.64 0 0 1-44.39 14.82l-2.21.5-1.1.24-1.11.2-4.34.78-4.18.8c-.68.15-1.35.24-2 .34l-2 .31c-2.57.41-5 .85-7.06 1.31a55.69 55.69 0 0 0-5.49 1.19h-.15c5.43-.34 10.83-1.23 16.28-1.91l8.11-1.47 2-.36c.68-.13 1.34-.3 2-.45l4-.92 4-.91c1.34-.31 2.66-.73 4-1.09l4-1.1c1.32-.39 2.66-.69 4-1.15l7.81-2.57c1.32-.4 2.57-.94 3.85-1.41l3.83-1.46 2.86-1.09c.95-.37 1.87-.81 2.81-1.21l5.6-2.47c1.89-.77 3.68-1.77 5.52-2.66l5.48-2.74 5.34-3c1.77-1 3.59-2 5.29-3.1l5.19-3.28c.86-.56 1.75-1.07 2.58-1.66l2.51-1.77 5-3.54c1.64-1.21 3.23-2.51 4.85-3.76l2.42-1.89 1.21-.94c.4-.32.77-.67 1.16-1l4.65-4 2.31-2 2.22-2.12 4.44-4.23c.75-.69 1.44-1.45 2.14-2.19l2.11-2.23 2.11-2.22c.69-.76 1.43-1.46 2.07-2.26a235.28 235.28 0 0 0 25.19-33.76 212.16 212.16 0 0 0 18.28-37.61c.58-1.68 1.15-3.37 1.73-5.06l.87-2.53.44-1.26.37-1.29c.91-1 1.8-1.79 2.72-2.83a213.85 213.85 0 0 1-45.89 83.19A226.53 226.53 0 0 1 381 426.43 215.21 215.21 0 0 1 340.73 450l-4.14 1.85c-.68.32-1.39.58-2.1.86l-2.11.82-4.23 1.64-2.15.83-2.14.72c-2.87.94-5.73 1.94-8.61 2.85l-8.68 2.43a229.41 229.41 0 0 1-35.69 6.15c-3 .22-6 .47-9 .66l-9.07.22c-.76 0-1.51.07-2.27 0l-2.26-.06-4.54-.12c-1.51-.05-3 0-4.53-.14l-4.52-.35a208.72 208.72 0 0 1-35.76-5.68l-2-.45c-.66-.15-1.3-.36-1.94-.54l-3.88-1.1-3.87-1.1-1-.27-1-.32-1.91-.65c-2.54-.86-5.1-1.69-7.63-2.58l-7.52-2.93-1.89-.73c-.62-.26-1.23-.55-1.84-.82l-3.7-1.65-3.7-1.64c-1.23-.55-2.41-1.2-3.62-1.8l-3.63-1.82-1.81-.9-.91-.46-.88-.5-7.09-4a103.41 103.41 0 0 0 12.1 7.68 156.51 156.51 0 0 0 14.52 7 234.13 234.13 0 0 0 67.62 16.52l5.58.46c1.87.13 3.74.12 5.61.2l-3.32-.29-1.67-.15-1.69-.23c-2.26-.3-4.57-.59-6.93-.84s-4.77-.62-7.25-.9c-1.24-.14-2.5-.28-3.78-.4l-1.94-.17c-.65 0-1.3-.16-2-.23-1.68-.2-3.72-.52-5.76-.89-1-.18-2.05-.38-3-.58s-1.91-.49-2.77-.72c-1.66-.48-3.37-.91-5.09-1.32l-2.59-.61c-.87-.19-1.71-.47-2.57-.7-1.71-.49-3.41-1-5.07-1.49a38.82 38.82 0 0 1-4.83-1.72l1.72.59 1.75.5 3.5 1 3.49 1 1.75.5 1.78.41 7.08 1.65c.6.14 1.18.29 1.78.41l1.79.32 3.58.65 3.58.65c.6.1 1.19.22 1.79.31l1.81.23 7.22.94 1.8.23 1.82.14 3.63.28 3.63.29 1.82.14 1.82.05c4.85.11 9.71.37 14.56.15l3.65-.09c1.21 0 2.43 0 3.64-.14l7.26-.53 1.82-.14.91-.06.9-.12 3.61-.45 3.61-.45 1.81-.23c.6-.06 1.21-.15 1.8-.26l7.17-1.27 1.8-.32c.59-.1 1.19-.21 1.78-.35l3.55-.82 3.55-.81 1.77-.41.89-.2.87-.25 7-2c2.35-.6 4.64-1.43 6.94-2.2l3.45-1.16c1.15-.39 2.31-.75 3.43-1.22l6.77-2.67 1.7-.66c.56-.23 1.11-.5 1.66-.74l3.32-1.5 3.32-1.5 1.66-.75 1.62-.83 6.48-3.32c.54-.28 1.09-.53 1.62-.84l1.57-.91 3.16-1.82c2.1-1.21 4.24-2.38 6.25-3.73l6.13-3.94c2-1.35 4-2.8 5.95-4.2l3-2.11c1-.73 1.91-1.5 2.87-2.25l5.71-4.51 5.5-4.79c.91-.8 1.85-1.57 2.73-2.41l2.63-2.52c1.56-1.5 3.35-2.83 5-4.23-.28.61-.3.88-.62 1.2-1.48 1.5-3 3-4.44 4.47l-2.21 2.24-2.31 2.12-4.63 4.26c-.76.73-1.58 1.39-2.39 2.06l-2.44 2 1-.8 2.76-2.18c.9-.74 1.77-1.53 2.66-2.3l5.32-4.61c1.72-1.6 3.4-3.23 5.1-4.85l2.55-2.42c.84-.83 1.63-1.69 2.45-2.54l4.87-5.09c1.56-1.75 3.09-3.54 4.64-5.3l2.31-2.66c.76-.9 1.47-1.83 2.2-2.75l4.38-5.53c1.39-1.89 2.74-3.81 4.12-5.72l2.06-2.86c.66-1 1.28-2 1.92-3l3.84-5.92c1.21-2 2.37-4.06 3.55-6.09l1.78-3.05c.57-1 1.09-2.08 1.63-3.12l3.25-6.27c1-2.12 2-4.27 3-6.41l1.46-3.21c.49-1.07.88-2.18 1.33-3.26l2.47-6.19c.44-1 .77-2.09 1.14-3.13l1.08-3.15 1.09-3.15.54-1.58c.19-.52.32-1.06.48-1.59l1.85-6.4c.73-.83 1.4-1.4 2.13-2.26-1.07 3.7-2.09 7.42-3.22 11.1l-1.87 5.46-.93 2.74-.46 1.37-.53 1.34a216.9 216.9 0 0 1-22 43.08l-1.28 2c-.42.66-.83 1.32-1.29 1.94l-2.64 3.72-2.5 3.62c-.4.59-.83 1.15-1.24 1.71l-1.23 1.65c-1.59 2.16-3 4.21-4.26 6.07a53.06 53.06 0 0 0-3.2 4.84c-.42.74-1 1.56-1.58 2.44-.32.44-.65.9-1 1.37s-.77.92-1.19 1.41c-1.68 1.91-3.65 4-5.76 6.24a219.39 219.39 0 0 1-26.21 22.62L377 436c-1 .77-2.16 1.43-3.25 2.12l-3.28 2.08-3.29 2.08c-1.1.67-2.24 1.29-3.37 1.93-2.25 1.27-4.49 2.59-6.76 3.83-4.63 2.32-9.19 4.8-14 6.82l-3.54 1.6c-.59.26-1.18.54-1.78.79l-1.81.71-7.23 2.84-.91.36-.92.31-1.84.62-3.68 1.24-3.68 1.24c-1.24.38-2.49.72-3.74 1.08-2.49.69-5 1.43-7.48 2.1l-7.58 1.73-1.89.44-.95.21-1 .17-3.83.68-3.82.67c-1.28.22-2.55.47-3.84.6l-7.7.95-1.93.23c-.64.06-1.29.1-1.93.15l-3.87.27a225.47 225.47 0 0 1-48.36-1.63c-1-.15-2.1-.27-3.23-.47l-3.51-.66c-2.38-.44-4.8-.87-6.95-1.19-4.25-.85-7.41-1.23-7-.25.19.41-4.55-.51-7.88-1.53-2.51-.7-5.16-1.47-7.15-2.15s-3.28-1.39-3.17-1.64c.25-.58-1.78-1.52-4.66-2.58-.72-.27-1.5-.52-2.3-.82l-2.45-1-4.86-1.93-2.15-.86c-.72-.29-1.41-.63-2.11-.94-1.39-.63-2.75-1.24-4.06-1.8s-2.56-1.07-3.73-1.49-2.2-.87-3.16-1.13l2.58 1.35 2.63 1.24 5.27 2.49c1.74.87 3.55 1.59 5.35 2.34l5.39 2.24q-4-1.26-8-2.69l-1-.35-1-.41-2-.83-3.91-1.69c-1.29-.59-2.62-1.12-3.88-1.78l-3.81-2c-2.52-1.34-5.09-2.59-7.52-4.11-1.32-.7-2.74-1.46-4.2-2.28s-3-1.64-4.49-2.64-3-2-4.53-3-3-2-4.4-3.14c-2.61-2-4.69-3.64-6.73-5.11s-3.92-3-6.3-4.56c-.78-.53-1.88-1.33-3-2.22s-2.25-1.93-3.2-2.79c-4.49-3.89-8.71-8.1-12.95-12.27l-6.14-6.5-.77-.81-.73-.85-1.46-1.69-2.92-3.39a237.22 237.22 0 0 1-21-29l-3.19-5.3c-1.06-1.81-2.19-3.62-3.15-5.58-2-3.89-4.09-7.9-5.83-12.32-.47-1.05-.95-2.1-1.42-3.16s-1-2.11-1.42-3.2L41 331.31c-1.66-2.51-2.84-5.72-4.19-9.89a243.14 243.14 0 0 1-8.66-37.59 241.19 241.19 0 0 1-1.79-48v-.61a198.59 198.59 0 0 0 .34 42.13A229.66 229.66 0 0 0 44 341.91c1.14 2.55 2.26 5.11 3.42 7.65l3.72 7.44.94 1.87c.33.62.69 1.22 1 1.83l2.06 3.64 2.1 3.66c.69 1.21 1.48 2.37 2.21 3.56a215.08 215.08 0 0 0 19.77 27.05 225.25 225.25 0 0 0 80 59.92l3.49 1.6 3.58 1.42c2.39.94 4.76 1.92 7.16 2.82l7.3 2.48 1.83.62c.6.21 1.21.41 1.84.57l3.71 1.06a224.49 224.49 0 0 0 30.12 6.54l7.65 1 1.91.25 1.92.15 3.84.31 3.84.32 1.92.16 1.92.06 7.69.25 1.92.07h1.92l3.84-.06h5.76c.64 0 1.28-.07 1.92-.1l7.65-.46 1.91-.11c.64 0 1.27-.12 1.91-.18l3.8-.41c2.14-.23 4.34-.45 6.55-.76l6.65-1.17 3.36-.6c1.13-.19 2.23-.5 3.34-.75l6.63-1.54c1.68-.36 3.24-.83 4.71-1.22s2.82-.73 4.05-1 2.32-.48 3.25-.6a13.05 13.05 0 0 1 2.28-.18c-1.4.54-2.81 1-4.22 1.41l-4.25 1.36c-1.44.43-2.89.93-4.41 1.31s-3.11.73-4.75 1.09l4.36-1 1.09-.26 1.07-.3 2.16-.6c14.7-3.85 29.48-9 43.32-16.5 2.59-1.43 5.4-2.72 8.13-4.28l4.15-2.25c1.39-.76 2.8-1.47 4.1-2.32 3.94-2.48 8-4.81 11.76-7.64 1.91-1.39 3.86-2.76 5.77-4.23s3.74-3.09 5.62-4.7a10.77 10.77 0 0 0-3.51 1.75c-.73.49-1.49 1-2.26 1.6l-1.13.86-1.12.8q-2.56 1.89-5.12 3.7l-2.55 1.81-2.6 1.57-5.23 3.22-1.3.8c-.44.26-.89.49-1.33.73l-2.68 1.45-5.33 2.85c-1.79.92-3.62 1.73-5.43 2.6s-3.62 1.73-5.44 2.56l-5.56 2.35-4.26 1.82-4.35 1.62-4.34 1.64c-.73.26-1.44.57-2.18.79l-2.21.72-4.41 1.43-2.21.72c-.73.25-1.47.49-2.22.68l-8.95 2.46a232.43 232.43 0 0 1-36.57 6.09c-4.74.28-9.48.72-14.24.7-2.38 0-4.76.11-7.14.12l-7.13-.24-3.56-.12c-1.19 0-2.37-.18-3.55-.27l-7.08-.63c-.59-.06-1.18-.09-1.77-.17l-1.76-.26-3.5-.51-3.5-.52c-1.16-.17-2.32-.33-3.47-.59a22.12 22.12 0 0 1-4.95-1.48c1.88.22 3.75.5 5.6.8.93.18 1.87.25 2.8.39l2.8.38 5.55.79c.92.16 1.84.21 2.76.29l2.76.21a234.17 234.17 0 0 0 65.18-4.31l8-1.83c1.33-.28 2.64-.68 4-1l3.94-1.11 3.94-1.11c1.3-.41 2.59-.87 3.89-1.3l3.88-1.3 1.94-.65 1-.33 1-.37 7.62-3c.64-.26 1.28-.49 1.91-.76l1.86-.84 3.74-1.68 3.74-1.68c1.23-.58 2.43-1.23 3.65-1.84l3.65-1.86 1.83-.93c.61-.3 1.22-.62 1.8-1l6.08-3.48c1-.59 2-1.13 3-1.75l2.92-1.88 5.79-3.73 5.54-4 2.73-2c.9-.67 1.75-1.41 2.62-2.11 1.73-1.43 3.44-2.85 5.13-4.28.86-.69 1.66-1.46 2.46-2.21l2.39-2.27 2.34-2.27c.77-.77 1.56-1.5 2.28-2.32 1.13-1.24 2.88-2.84 4.36-4.25l2.58-2.43 2.45-2.55 4.91-5.11 4.67-5.33 2.33-2.67c.76-.9 1.47-1.84 2.21-2.76l4.4-5.56c1.42-1.89 2.77-3.83 4.15-5.74l2.07-2.88c.69-1 1.3-2 1.95-3l3.85-5.95c.43-.63.81-1.3 1.18-1.79s.7-.85 1-.91c-.29.68-.64 1.4-1 2.15s-.89 1.51-1.37 2.29c-1 1.57-2.05 3.21-3.07 4.81l-1.4 2.17-1.52 2.11c-1 1.4-2 2.77-2.84 4.05s-1.56 2.49-2.14 3.48a6.71 6.71 0 0 0-1 2.51c0 .54-2.42 3.6-4 5.66s-3.22 3.91-4.81 5.86l-2.38 2.88c-.81.93-1.65 1.82-2.46 2.72-.37 1.41.5 1.15 2.17-.19.41-.34.88-.74 1.39-1.2s1-1 1.56-1.63c1.11-1.19 2.36-2.59 3.68-4.11a319.32 319.32 0 0 0 26.08-35.33l1.26-2c.2-.33.41-.66.6-1l.55-1q1.1-2 2.11-4.1t2-4.11c.63-1.37 1.13-2.8 1.67-4.19 1.31-3.51 2.83-6.94 4.27-10.78.76-1.9 1.58-3.87 2.48-5.95l2.62-6.7-1.1 4-.57 2c-.19.67-.45 1.33-.67 2-.91 2.65-1.86 5.3-2.84 7.93l-.36 1-.41 1-.84 1.93-1.68 3.86c-.57 1.28-1.12 2.56-1.71 3.83l-1.89 3.73-2.04 3.78c-.63 1.23-1.24 2.47-1.95 3.65l-4.05 7.13c-.64 1.19-1.39 2.32-2.1 3.46l-2.1 3.42-2.06 3.4c-.7 1.12-1.44 2.19-2.15 3.29l1.38-1.74c.47-.59.92-1.18 1.34-1.81q1.27-1.86 2.55-3.77l2.53-3.87c.43-.64.83-1.31 1.21-2l1.17-2 2.34-4.05c.79-1.35 1.59-2.68 2.29-4.07 1.46-2.75 2.94-5.45 4.47-8.09a36.76 36.76 0 0 1-2.79 8.45c-.39.88-.75 1.82-1.25 2.74s-1 1.89-1.55 2.88c-1.08 2-2.29 4.11-3.58 6.33A242.72 242.72 0 0 1 417.17 415a255.12 255.12 0 0 1-25.86 22.9c-.54.44-1.11.84-1.68 1.25l-1.7 1.22-3.41 2.44c-1.14.8-2.26 1.65-3.42 2.42l-3.52 2.29-3.51 2.29-1.76 1.14c-.59.37-1.21.71-1.81 1.07l-7.24 4.23-.91.53-.93.48-1.86 1-3.72 1.93c-1.24.64-2.48 1.29-3.73 1.91l-3.81 1.74-3.81 1.72c-1.27.57-2.53 1.17-3.83 1.66l-7.78 3c-.65.24-1.28.51-1.94.73l-2 .65-3.92 1.32-3.91 1.34c-1.3.45-2.64.78-3.95 1.18l-7.92 2.32-8 1.93-2 .48c-.67.17-1.33.33-2 .44l-4.05.76-4 .75c-1.35.24-2.69.51-4.06.65l-8.19 1-2.05.24-2.06.13-4.13.24c-5.62.43-11.26.35-16.91.49h-2.12l-2.11-.06-4.24-.12-4.24-.11-4.23-.31-4.24-.32-2.11-.15c-.71-.05-1.42-.09-2.12-.2l-8.42-1-2.11-.26c-.7-.09-1.39-.24-2.09-.35l-4.18-.74c-2.78-.52-5.58-.94-8.31-1.64l-7.33-1.71c-1.23-.26-2.42-.63-3.63-1l-3.6-1-3.6-1c-.6-.18-1.21-.33-1.8-.52l-1.77-.59-7.09-2.36-1.77-.59-1.74-.67-3.48-1.34-3.46-1.43-1.73-.67c-.58-.23-1.14-.49-1.71-.74-4.54-2-9.14-3.92-13.55-6.23-13.36-6.65-25.58-14.94-37.59-24l-4.1-3.17 6.43 5.08c.54.41 1.06.85 1.62 1.25l1.67 1.19 3.33 2.39 3.34 2.38c1.11.79 2.28 1.49 3.42 2.24 2.31 1.47 4.59 3 6.91 4.42a271.25 271.25 0 0 0 51.78 23.89c3.51 1.11 6.69 2 9.95 2.79 1.94.42 3.95.77 6 1.23s4.11.92 6.25 1.42l9.98 1.91 1.26.24 1.27.18 2.53.34 5.08.7v.39a207.68 207.68 0 0 1-38-7.58c-4.83-1.35-9.53-3.1-14.27-4.72l-1.77-.62-1.75-.7-3.48-1.39-3.49-1.39-1.74-.69-1.71-.77-6.84-3.1-1.7-.77c-.57-.27-1.12-.56-1.68-.84l-3.34-1.71-3.34-1.71-1.67-.86c-.55-.28-1.09-.61-1.63-.92l-6.51-3.74c-1.95-1.07-3.79-2.32-5.67-3.51L120 446c-1.82-1.27-3.62-2.57-5.44-3.86l-2.71-1.93c-.45-.33-.91-.64-1.35-1l-1.32-1-5.18-4.14c-.87-.69-1.76-1.35-2.61-2.08l-2.51-2.18-5-4.38c-1.65-1.48-3.23-3.05-4.84-4.58a231.19 231.19 0 0 1-34-40.9l-4.22-6.44c-1.35-2.18-2.61-4.42-3.91-6.64l-1.93-3.34c-.62-1.13-1.18-2.29-1.76-3.44a557.7 557.7 0 0 1-3.46-6.92c-1.57-3.57-3.15-6.88-4.75-10.16s-2.89-6.67-4.3-10.19c-4.44-11.93-7.32-24.63-10.49-36.6-.27-2-.55-3.94-.86-5.9l-.46-2.94c-.15-1-.24-2-.37-3l-.75-5.92-.4-3c-.1-1-.18-2-.27-3l-.54-6-.26-3c-.06-1-.09-2-.13-3-.07-2-.13-4-.2-6l-.08-3c0-1 .05-2 .07-3 .11-3.21.21-6.41.31-9.62s.49-6.41.73-9.61c.07-.8.11-1.61.2-2.41l.3-2.39.59-4.79c.21-1.6.37-3.2.62-4.79l.84-4.76a200.88 200.88 0 0 1 10-37.3c.45-1.3 1-2.76 1.47-4.2a26.61 26.61 0 0 0 .97-4.04c-1.36 3.36-2.76 6.46-3.2 6.87-.06.05.1-.41.07-.45a258.8 258.8 0 0 0-2.42 6.38l-1.15 3.25c-.36 1.09-.65 2.19-1 3.28l-2 7.13c-.36 1.18-.6 2.39-.88 3.59l-.83 3.61-.83 3.61-.41 1.8-.35 1.82-1.31 7.28c-.09 1-.24 2-.33 3.06s-.18 2.16-.29 3.32c-.24 2.31-.55 4.84-.94 7.76-.27 2.7-.48 5.42-.71 8.13l-.33 4.08-.09 4.09-.24 8.19.18 8.19.1 4.1.3 4.09c.21 2.72.38 5.46.62 8.18l1 8.14.25 2c.08.68.16 1.36.29 2l.71 4a228.23 228.23 0 0 0 10.49 39.9 236.5 236.5 0 0 0 53.08 83.86c1 1 1.86 2 2.85 2.9s2 1.86 2.9 2.79c2.31 2.25 4.55 4.57 7 6.65l3.63 3.2c1.22 1.05 2.4 2.15 3.68 3.12l7.59 6c2.62 1.88 5.25 3.73 7.88 5.58a247.11 247.11 0 0 0 33.58 19A230.07 230.07 0 0 0 199 481.2a249.17 249.17 0 0 0 50.24 5.55 219.11 219.11 0 0 0 32.76-2.21l4-.54c.68-.08 1.35-.21 2-.34l2-.37 8.06-1.47 8-1.83c1.33-.31 2.68-.59 4-.92l4-1.09c2.54-.7 5.09-1.38 7.59-2.19l7.48-2.64c2.51-.84 4.95-1.91 7.43-2.92l3.72-1.52 1.88-.75c.62-.26 1.23-.56 1.85-.83a233.56 233.56 0 0 0 81.2-58.65 253.36 253.36 0 0 0 22.46-29.23l2.49-3.87 1.25-1.95c.42-.64.77-1.32 1.16-2l4.57-8c1.41-2.72 2.76-5.47 4.12-8.21l1-2.06c.32-.69.61-1.4.92-2.1l1.8-4.22c2-4.37 3.72-8.88 5.65-13.21l.62-1.43c.2-.47.36-.93.53-1.32.33-.79.62-1.33.8-1.3s.16 1.34-.39 3.24c-1 3.19-2.37 7-3.34 10.05s-1.79 5.45-1.29 6c-.84 2-1.53 3.7-2.14 5.32s-1.25 3-1.79 4.45l-1.63 4.2c-.28.71-.57 1.43-.87 2.17s-.68 1.47-1.06 2.24a15.27 15.27 0 0 0 1.43-1.47c1.34-1.86 4.56-8.34 3.78-5.28a11.4 11.4 0 0 1-1.69 3.9c-.62.87-1.26 1.54-2 2.52a15 15 0 0 0-2.1 4.35c-.64 1.65-1.32 3.31-2.08 5.05s-1.74 3.44-2.78 5.3c-.53.93-1.08 1.89-1.68 2.87s-1.2 2-1.94 3c-1.45 2.05-3.08 4.23-4.95 6.58-.64.8-1.16 1.53-1.63 2.14a17.17 17.17 0 0 0-1.11 1.59c-.55.91-.7 1.51-.47 1.82s-.28 1.59-1.38 3.16a31.17 31.17 0 0 1-4.64 5.22q-2.59 2.37-5.12 4.86l-1.26 1.24-1.3 1.21-2.6 2.45c-1.73 1.64-3.4 3.35-5.13 5s-3.51 3.28-5.25 5l-2.59 2.52-2.58 2.47q-2.68 2.44-5.34 4.93c-1.8 1.62-3.67 3.17-5.49 4.76l-2.74 2.39c-.46.39-.9.8-1.38 1.18l-1.41 1.13c-4.7 3.74-4.44 3.7-4.07 2.43.17-.62-2.8 1.77-4.33 2.76-5.45 3.28-9.32 6.35-12.92 8.92a31.71 31.71 0 0 0-4.32 1.83c-1.23.62-2.27 1.32-3.28 1.92-2 1.25-3.68 2.57-5.76 3.84a37.68 37.68 0 0 1-4.08 2.12c-2.71 1.14-6.37 2.34-6.26 3.14s4.47-1.17 7.9-2.86c10.48-5.36 20.61-11.25 30.46-17.58 2.06-1.41 4.09-2.83 6.12-4.27l3-2.16c1-.76 1.94-1.54 2.91-2.3l5.78-4.64c1.9-1.57 3.72-3.25 5.6-4.86a267.65 267.65 0 0 0 33.51-35.37c-1.57 2.26-3.19 4.54-4.83 6.83s-3.51 4.43-5.3 6.65c-.91 1.1-1.78 2.24-2.74 3.3l-2.89 3.21-2.92 3.21-1.47 1.6-1.54 1.55-6.21 6.14c-.52.52-1.06 1-1.6 1.5l-1.64 1.46-3.27 2.92c-1.09 1-2.17 2-3.28 2.91l-3.4 2.76-3.4 2.77c-1.12.92-2.24 1.85-3.43 2.69-2.43 1.81-5 3.63-7.44 5.43-.61.46-1.24.89-1.86 1.31l-1.84 1.26c-1.21.85-2.37 1.69-3.46 2.54a27.76 27.76 0 0 1-5.43 3.33q-2.39 1.08-4.81 2.36l-2.45 1.3-1.23.68-1.27.64-5.19 2.64c-.87.44-1.73.89-2.6 1.35s-1.75.91-2.65 1.3l-6.75 3.1-3.26 1.51-3.27 1.38c-2.18.92-4.34 1.84-6.52 2.8-1.09.5-2.21.91-3.34 1.35l-3.43 1.35-4.61 1.81-1.2.45-1.23.4-2.49.8-5.09 1.6-2.6.8-2.65.67L305 493l-2.69.65-1.34.31-1.36.26c-3.61.67-7.22 1.31-10.74 1.91a337.06 337.06 0 0 1-47.45 3.26h-4c-1.34-.07-2.7-.16-4.06-.26-2.73-.2-5.49-.4-8.25-.71l-8.3-1.19c-1.38-.21-2.77-.36-4.15-.61l-4.12-.74c.93.09 1.89.21 2.86.34s2 .3 3 .38l6.23.7 3.16.35c1.05.11 2.11.23 3.16.25 2.05.1 4.05.1 6.05.1a54.24 54.24 0 0 0-6.91-1.09c-2.5-.35-5.14-.68-7.73-1a250.68 250.68 0 0 1-96.13-33.7A269.7 269.7 0 0 1 77.65 428C68.56 419.5 60 409.2 52 399.1a48 48 0 0 0-4.87-6.05 38.62 38.62 0 0 0 3.87 6.46c.41.6.87 1.18 1.33 1.76l1.4 1.73 2.62 3.27a245.79 245.79 0 0 0 43.7 42.42 235.1 235.1 0 0 0 48.25 28.66c2 .87 4.12 1.87 6.1 2.81a8.44 8.44 0 0 1 1.83 1c.57.51-1.14 0-2.56-.56-2.29-.91-4.51-1.94-6.76-3l-3.43-1.6c-1.16-.55-2.31-1.16-3.52-1.73a213.58 213.58 0 0 1-33.51-19.43 249.61 249.61 0 0 1-83.94-100.92A262.42 262.42 0 0 1 6.35 306a243.2 243.2 0 0 1-6.24-50L0 251.66c0-1.43.05-2.86.08-4.28l.22-8.57c.17-2.86.41-5.71.63-8.56l.33-4.25c.15-1.42.35-2.84.52-4.26l1.1-8.51 1.52-8.46c.26-1.4.5-2.81.78-4.22l1-4.18c.66-2.78 1.28-5.58 2-8.35 1.62-5.5 3-11.1 4.95-16.5.46-1.36.91-2.72 1.36-4.08l.68-2c.23-.68.51-1.33.75-2l3.08-7.97A246.94 246.94 0 0 1 36.47 121 308 308 0 0 1 59 89.39a217.12 217.12 0 0 1 36.51-34.86q-1.7 1.57-3.5 3.13l-3.57 3.25-3.66 3.23L83 65.75c-.61.54-1.18 1.12-1.77 1.67a254.07 254.07 0 0 0-56 75.29 237.36 237.36 0 0 0-15.51 41.94 249.22 249.22 0 0 0-7.5 43.94c-.14 2.19-.3 4.34-.47 6.48-.09 1.07-.18 2.13-.26 3.19s-.09 2.12-.13 3.17c-.07 2.12-.15 4.22-.22 6.33l-.09 3.16c0 1.06.05 2.12.08 3.18.08 2.58.25 6 .73 5.49s.31-3.37.21-5.28c-.56-15.89 1.2-31.82 3.92-47.55a232.49 232.49 0 0 1 7-29c.75-2.38 1.59-4.72 2.38-7.08l1.22-3.53c.2-.59.39-1.19.62-1.77l.68-1.73c1.87-4.62 3.59-9.29 5.74-13.78l1.8-3.89c.62-1.29 1.18-2.59 1.82-3.83l3.74-7.57.95-1.89c.33-.62.68-1.23 1-1.85l2.06-3.65c2.67-5 5.78-9.67 8.8-14.44.37-.6.77-1.18 1.18-1.75l1.22-1.73 2.44-3.45 2.46-3.44c.84-1.13 1.73-2.23 2.59-3.34 1.75-2.21 3.48-4.44 5.26-6.62L64.48 86c1.81-2.16 3.8-4.16 5.75-6.19l2.93-3 1.46-1.51c.5-.5 1-1 1.53-1.46L82.29 68c1-1 2.09-1.89 3.16-2.8l3.2-2.75 3.21-2.74c.53-.46 1.08-.9 1.64-1.32l1.66-1.3 6.66-5.09 6.88-4.86c1.15-.8 2.28-1.63 3.45-2.41l3.55-2.26 4.09-2.6 2-1.3 2.1-1.2 8.42-4.8 8.64-4.4 2.21-1.17 2.21-1 4.42-2 4.43-2 4.52-1.77 4.52-1.76 2.26-.87 2.3-.78 9.2-3.06 9.34-2.61 2.33-.64c.79-.2 1.58-.36 2.37-.55l4.72-.96 4.73-1.06c1.59-.31 3.18-.56 4.77-.84l4.77-.82c1.59-.26 3.18-.57 4.79-.73l9.6-1.14 1.2-.14 1.21-.08 2.41-.19 4.82-.33c1.6-.09 3.21-.23 4.81-.28l4.82-.07 4.82-.07h2.41l2.41.08 9.62.37a268.8 268.8 0 0 1 43.55 6.3 226 226 0 0 1 41.42 13.89 271.9 271.9 0 0 1 41.75 23.37 230.53 230.53 0 0 1 36.43 30.82 263.42 263.42 0 0 1 31.07 39.44 241.83 241.83 0 0 1 22.69 45 236.25 236.25 0 0 1 11.94 44 224.34 224.34 0 0 1 3.06 44.8A253.32 253.32 0 0 0 488 193c-.5-2.41-1.19-4.76-1.84-7.13l-2-7.1-2.32-7c-.77-2.33-1.52-4.67-2.45-6.94l-2.67-6.88-.67-1.71-.75-1.69-1.49-3.37-1.51-3.36c-.51-1.12-1-2.26-1.54-3.35l-3.33-6.58a243.69 243.69 0 0 0-77.13-87.98c22.58 16.5 43.2 36.88 59.21 60a245.57 245.57 0 0 1 21.35 37.5 237.45 237.45 0 0 1 14.78 42.4c-.81-1.8-1.55-3.63-2.26-5.49-.35-.93-.69-1.86-1-2.81s-.63-1.91-1-2.85c-.73-1.9-1.44-3.83-2.15-5.8-.34-1-.7-2-1.05-3-.18-.5-.35-1-.53-1.51l-.6-1.5q-1.72-4.35-3.46-8.68c-.27-.73-.6-1.43-.92-2.14l-.95-2.13-1.91-4.25c-1.22-2.86-2.67-5.6-4.06-8.38l-2.09-4.15c-.34-.7-.72-1.38-1.1-2.05l-1.14-2-2.29-4c-.77-1.34-1.48-2.73-2.33-4l-5-7.88c-.41-.66-.85-1.3-1.3-1.93l-1.33-1.91-2.68-3.81c-1.74-2.58-3.7-5-5.61-7.45l-3-3.83c-1-1.28-2.1-2.48-3.15-3.72l-3.16-3.69L430 89c-.54-.6-1.1-1.18-1.66-1.77-2.22-2.36-4.43-4.74-6.68-7.08l-7-6.76A232.81 232.81 0 0 0 384 49.3c-1.95-1.25-4-2.59-6.05-3.85l-1.52-.93q-.78-.42-1.56-.81c-1-.52-2-1-3-1.41a24.23 24.23 0 0 0 2.52 2c.5.36 1 .72 1.59 1.1s1.1.8 1.68 1.21c2.33 1.62 4.9 3.27 7.19 4.71A207.3 207.3 0 0 1 427.27 89l1.1 1.24 1 1.29 2.08 2.58 4.19 5.16 4 5.33c1.31 1.79 2.71 3.52 3.93 5.38l3.78 5.5c.63.92 1.29 1.82 1.88 2.76l1.77 2.84 3.55 5.66c.61.93 1.12 1.93 1.68 2.89l1.64 2.91 1.65 2.91c.53 1 1.13 1.93 1.61 2.94l3 6 1.51 3c.5 1 .92 2 1.38 3l2.7 6.1c.94 2 1.69 4.12 2.49 6.18l2.37 6.22c.73 2.09 1.38 4.21 2.06 6.31l1 3.15c.33 1.06.69 2.1.95 3.17.56 2.13 1.16 4.29 1.67 6.31.25 1 .48 2 .67 2.87.1.46.19.89.25 1.31s.1.82.13 1.2c.19 2.49-.2 3-.88 2a14.87 14.87 0 0 1-1.19-2.66c-.49-1.23-1.06-2.78-1.63-4.64-.75-2.39-1.45-4.82-2.27-7.23l-2.57-7.18c-.44-1.19-.83-2.41-1.31-3.59l-1.43-3.54c-1-2.36-1.87-4.74-2.85-7.07a255.19 255.19 0 0 0-15.58-30.5 250.26 250.26 0 0 0-19.86-27.91l-5.59-6.49c-.92-1.1-1.91-2.13-2.9-3.16l-3-3.11-3-3.11-3.1-3-3.1-3c-1-1-2.06-2-3.16-2.9l-6.49-5.6c-1.06-1-2.22-1.8-3.34-2.69l-3.38-2.64c-1.13-.87-2.24-1.77-3.39-2.62l-3.51-2.47-3.38-2.4-1.75-1.23c-.59-.4-1.21-.77-1.81-1.15-2.83-1.79-5.33-3.63-7.82-5.4a74.17 74.17 0 0 0-7.92-4.57c-2-1-4.21-1.94-6.37-3s-4.34-2.1-6.57-3.11l-6.77-2.88c-1.12-.47-2.24-1-3.37-1.38s-2.27-.8-3.4-1.17a269.83 269.83 0 0 1 34 17.37 222.61 222.61 0 0 1 30.6 22.6A225.3 225.3 0 0 1 451.7 133a19 19 0 0 1-1.9-2.07c-.7-.8-1.44-1.71-2.21-2.73s-1.56-2.13-2.39-3.34c-.41-.6-.82-1.22-1.25-1.86s-.85-1.3-1.33-1.95l-4.73-6.63-1.19-1.65-1.26-1.6-2.52-3.2-2.52-3.19-.63-.8-.67-.77-1.33-1.54-5.35-6.14a258.86 258.86 0 0 0-23.57-22.44 240.17 240.17 0 0 0-32.49-22.65 208.41 208.41 0 0 0-36-16.53 282.9 282.9 0 0 0-36.73-10l-4.36-.8c-1.45-.25-2.89-.57-4.36-.72l-8.77-1.11c-1.45-.21-2.92-.29-4.39-.4l-4.4-.3-4.35-.32-4.4-.07a216.59 216.59 0 0 0-35 2c0 .25-1.71.62-3.71.86l-3.77.47c-1.25.2-2.5.44-3.75.66l-7.49 1.34c0 .15.06.3.06.45a231.19 231.19 0 0 1 103.78 3.43 226.23 226.23 0 0 1 76.83 37.42c2 1.38 3.81 2.92 5.7 4.42l2.82 2.25 1.42 1.12.71.57.68.59 5.47 4.76 1.37 1.19c.46.39.92.79 1.35 1.22l2.63 2.5c1.74 1.68 3.54 3.31 5.25 5l5 5.24c.83.88 1.71 1.72 2.5 2.64l2.39 2.73c1.59 1.82 3.21 3.61 4.76 5.47a217.32 217.32 0 0 1 20.55 29.61l2.22 3.91c.74 1.31 1.49 2.6 2.14 4l4 8c1.25 2.73 2.44 5.48 3.66 8.22l.91 2.05c.28.69.54 1.4.81 2.1l1.62 4.2a228.78 228.78 0 0 1 10.12 33.66c.72 2.85 1.18 5.75 1.7 8.64s1.08 5.77 1.38 8.7.73 5.82 1.05 8.73zM261.54 480.94c-3.83.1-8.38.39-9.38 1.32 5.45-.24 10.89-.26 16.31-.79l4.06-.31 2-.15 2-.25 8.07-1c1.34-.15 2.67-.41 4-.65l4-.72 4-.75c.66-.11 1.32-.26 2-.43l2-.48q3.9-1 7.79-2c2.56-.78 5.09-1.62 7.61-2.46l-6.72 1.73c-.55.15-1.11.28-1.67.39l-1.68.35-3.37.72-3.37.73-1.68.36c-.56.12-1.13.2-1.7.3L289 478c-1.14.19-2.27.42-3.41.58l-3.43.43-6.85.88-.86.11-.86.07-1.72.13-3.45.27-3.44.27c-1.14.09-2.28.2-3.44.2zM45.93 145.28a75 75 0 0 0-4.54 8.72 235.45 235.45 0 0 0-16.69 50.17 240.15 240.15 0 0 0-4.89 52.69 219 219 0 0 0 6.7 49.76 227.19 227.19 0 0 0 18.79 50.27 233.68 233.68 0 0 0 76.19 85.6 238.69 238.69 0 0 0 49.11 25.29l1.1.42 1.11.38 2.24.74 4.45 1.45c1.58.51 2.45.6 2.66.43s-1-.78-2.3-1.28a123.2 123.2 0 0 0-5.67-2.09 235.4 235.4 0 0 1-42.58-20.2c-2.12-1.34-4.19-2.69-6.25-4.05-1-.68-2.06-1.34-3.06-2.05l-3-2.19-5.87-4.34c-1.92-1.54-3.86-3.07-5.84-4.59a240 240 0 0 0 75.9 39.59 226.1 226.1 0 0 0 53.51 9.51l2 .14c.66 0 1.33 0 2 .05l4 .08 4 .09 2 .05 2-.05 7.94-.21 2-.05 2-.15 4-.29 4-.29c.66-.05 1.32-.07 2-.16l2-.24 7.89-1c1.32-.13 2.62-.4 3.92-.62l3.92-.67 3.93-.67c1.31-.22 2.59-.56 3.89-.83l-2 .42c-.66.14-1.32.28-2 .38l-4 .66-4 .67c-1.34.22-2.67.47-4 .6l-8.07 1c-.67.08-1.34.18-2 .24l-2 .16-4.06.31c-5.4.54-10.84.54-16.27.73h-4l-4.07-.1-4.07-.1c-1.36-.06-2.71-.2-4.06-.29a227.8 227.8 0 0 1-66-14.48c-2.62-1.05-5.27-2.06-7.88-3.13l-7.73-3.5-1.93-.87-1.89-1-3.78-1.94-3.77-1.93c-1.25-.66-2.46-1.4-3.69-2.09l-3.68-2.12-1.84-1-.91-.53-.9-.58-7.14-4.58c-1.21-.74-2.34-1.59-3.49-2.4l-3.46-2.46c-1.15-.82-2.31-1.63-3.44-2.47l-3.34-2.62c-2.45-2-5-3.84-7.31-6l-3.55-3.1c-1.18-1-2.4-2-3.51-3.16l-6.8-6.52-6.5-6.8c-.41-.43-.84-.86-1.24-1.3l-1.18-1.35-2.36-2.71-2.73-2.73-1.18-1.36-1.11-1.41-4.43-5.64-1.12-1.37c-.36-.47-.69-1-1-1.46l-2.07-2.92a225.53 225.53 0 0 1-15.06-24.32l-3.21-6.38c-.53-1.07-1.09-2.12-1.59-3.2l-1.45-3.26-2.9-6.53-2.57-6.66-1.28-3.32c-.42-1.12-.76-2.26-1.15-3.39L33.45 320l-.28-.85-.24-.86-.48-1.72-1-3.44-1-3.43c-.15-.58-.33-1.15-.46-1.73l-.4-1.74a229.61 229.61 0 0 1-6.38-58.91l.2-7.42c.16-2.47.38-4.94.57-7.4l.29-3.71c0-.61.11-1.23.2-1.84l.23-1.84.95-7.37c.13-1.23.4-2.44.61-3.66l.66-3.66c.46-2.43.81-4.88 1.43-7.28l1.68-7.24c.15-.6.27-1.2.44-1.8l.51-1.79 1-3.57-1 3.37c-.33 1.13-.69 2.24-.94 3.39a228.53 228.53 0 0 0-5.35 86.15l.5 4.23.69 4.19.69 4.2.34 2.09.18 1.05.22 1c.59 2.77 1.17 5.53 1.76 8.29.16.69.28 1.39.46 2.07l.54 2 1.09 4.09c-.79-.29-1.62-3-2.3-5.37-.29-.92-.48-1.87-.71-2.8L27.6 304l-1.35-5.62a213.43 213.43 0 0 0 16.24 49.6c3.29 7 6.73 13.77 10.53 21.22l-4.42-7.52c-1.37-2.53-2.65-5.09-4-7.61l-1-1.89-.48-.95-.43-1-1.72-3.85c-.57-1.27-1.13-2.55-1.7-3.82-.27-.64-.58-1.26-.82-1.91l-.75-1.94-2.86-7.71c-.91-2.59-1.72-5.2-2.58-7.79-.42-1.3-.87-2.58-1.26-3.89l-1.08-3.93-1.1-3.92c-.35-1.31-.76-2.61-1-3.94a234.15 234.15 0 0 1-6.71-56.82c.07-3.65.13-7.25.2-10.91-.15 3.37-.3 6.79-.44 10.17l-.06 1.27V255.01c0 1.67 0 3.31-.09 4.93 0 1.09-.05 2.47 0 3.9s.22 2.91.34 4.23.22 2.45.33 3.78c.06.66.11 1.34.17 2l.09 1.05c0 .35.09.71.13 1.06.37 2.86.75 5.91 1.12 9.05.14 1.57.47 3.14.71 4.73s.51 3.19.77 4.78c.43 3.2 1.14 6.32 1.72 9.35l-1-4.22c-.15-.71-.33-1.41-.46-2.11l-.37-2.12q-.75-4.23-1.48-8.43c-.41-2.81-.73-5.62-1.09-8.42-.17-1.39-.38-2.78-.51-4.18s-.21-2.8-.32-4.19a231.37 231.37 0 0 1-.39-33.06q.3-4.06.61-8.13c.07-1.35.28-2.69.44-4l.51-4 .51-4c.08-.67.2-1.34.32-2l.36-2c.48-2.64.95-5.29 1.43-7.93s1.22-5.22 1.82-7.83c.32-1.3.6-2.6.94-3.9l1.12-3.84 1.12-3.85.56-1.92c.18-.64.38-1.28.61-1.9l2.64-7.55c.32-.88.6-1.78 1-2.66s.69-1.77 1-2.65l2.07-5.37c.36-.9.66-1.82 1.06-2.7l1.17-2.65 2.33-5.3c.3-.65.58-1.31.89-2l1-1.9zM186.14 30.17l-2.44.69-1.22.35-1.21.41-4.81 1.63-4.8 1.62-4.72 1.85c1.53-.46 3.1-1 4.73-1.54s3.35-1 5.1-1.65l3.82-1.28 1.92-.64 1.94-.55c.91-.37 1.95-.77 1.69-.89zm93.93 2.44c.14-.48-2.53-1-6.1-1.53-3.58-.36-8.06-.61-11.5-.88a237.7 237.7 0 0 0-55.1 3.89c.24.37.52.74.79 1.1 4.56-.76 9.08-1.71 13.69-2.17 2.29-.28 4.58-.58 6.88-.84l6.92-.5 3.45-.26c1.16-.08 2.31-.07 3.47-.1l6.93-.16h1.74l1.73.05 3.47.1 3.47.09c1.15.05 2.31 0 3.46.15l10.59.9c3.36.38 6.04.55 6.11.16zm-74.47-1.33v.33a234.51 234.51 0 0 1 55.21-3.91 225.08 225.08 0 0 1 38 5 197.77 197.77 0 0 1 43.52 15.48c1 .51 2.07 1 3.09 1.48s2 .9 3 1.41c2 1 3.9 1.91 5.85 2.85 1.15.46 2.29.9 2.11.56a10.82 10.82 0 0 0-2.89-2.09c-.82-.49-1.79-1-2.86-1.62l-1.69-.9-.89-.46-.94-.42A236.52 236.52 0 0 0 306.7 34.3a228.75 228.75 0 0 0-101.1-3.02z" transform="scale(1, 1) skewX(0)"/><path fill="#000" d="M350.46 21.72l-2.14-1-2.17-.89-4.35-1.76-4.35-1.76c-1.47-.55-2.95-1-4.43-1.57l-4.43-1.55c-1.48-.5-2.94-1.07-4.45-1.48l-9-2.67c-1.49-.47-3-.8-4.54-1.18L306 6.77l-4.57-1.09-4.61-.89-4.62-.87c-1.54-.28-3.07-.61-4.63-.8l-9.31-1.28c-1.48-.23-3-.34-4.45-.47L269.37 1 264.9.58c-.74-.08-1.49-.12-2.24-.14l-2.24-.09-9-.35c-3 0-6 .05-9 .08L238 .16l-4.47.28c-3 .22-6 .38-8.93.66-5.92.75-11.84 1.35-17.65 2.56l-4.3.82-2.15.4-2.13.5-8.52 2.05c-1.42.32-2.82.74-4.23 1.15l-4.2 1.23-4.2 1.24c-.71.2-1.4.43-2.09.67l-2.07.72-8.27 2.89-8.13 3.27c-1.35.56-2.72 1.07-4 1.67l-4 1.84-4 1.83c-1.32.62-2.65 1.21-3.93 1.91l-7.52 4-1.88 1-1.83 1.05-3.66 2.16c-5 2.76-9.67 5.88-14.61 8.65-1.67 1-4.73 3.22-5.61 4.74a244.88 244.88 0 0 1 129-45.74l2.15-.15c.72-.05 1.44-.1 2.16-.11l4.31-.09 4.31-.08H251.86l8.61.26 2.15.07c.72 0 1.44.05 2.15.12l4.3.34a248.42 248.42 0 0 1 34.1 5l8.39 2c.69.17 1.4.32 2.09.51l2.07.6 4.14 1.19c5.56 1.48 10.95 3.49 16.4 5.33 2.69 1 5.34 2.1 8 3.15l4 1.6 3.92 1.78 3.92 1.79 2 .89c.66.29 1.31.6 1.94.93l7.67 3.94c-2.69-1.6-5.45-3.16-8.3-4.71s-5.86-2.93-8.95-4.35zM89 413.57c-7.15-8.11-14.85-16.08-21.32-24.82-1.59-2.22-3.13-4.48-4.69-6.71l-1.17-1.67c-.4-.56-.79-1.12-1.14-1.7l-2.19-3.45-2.19-3.46-1.15-1.76-1-1.78-4.1-7.1c-.34-.58-.65-1.18-.95-1.78l-.91-1.81c-.61-1.21-1.21-2.42-1.81-3.64s-1.21-2.43-1.78-3.65-1.09-2.49-1.63-3.72l-1.65-3.7c-.55-1.22-1.16-2.42-1.65-3.67-1-2.46-2.12-4.88-3.29-7.25a211 211 0 0 0 21.75 43.72A231.54 231.54 0 0 0 89 413.57zM464.76 341.39l6.16-14.8c.51-1.15 1-2.31 1.42-3.5a36.85 36.85 0 0 0 1.2-3.68c.68-2.58 1.32-5.39 2-8.63-1.07 3.06-2 5.83-2.87 8.43l-.32 1c-.12.32-.23.63-.35.94-.23.63-.46 1.24-.69 1.85-.44 1.22-.87 2.42-1.3 3.6s-.81 2.38-1.22 3.57c-.18.6-.4 1.19-.64 1.78s-.44 1.19-.67 1.79c-.87 2.38-1.77 4.9-2.72 7.65zM425.82 390c1.58-1.72 3.22-3.47 4.78-5.33s3-3.87 4.52-5.88 2.92-4.12 4.33-6.26q1-1.62 2.1-3.24l1-1.64c.34-.55.65-1.12 1-1.69l3.86-6.81c.67-1.12 1.21-2.32 1.81-3.48l1.76-3.51 1.76-3.49c.56-1.17 1.07-2.37 1.61-3.54l3.21-7c.05-.12.19-1.1 0-.89a7.74 7.74 0 0 0-.59 1c-.26.46-.52.92-.58 1.08-1 2.61-2.11 5.05-3.2 7.38-.27.59-.53 1.17-.82 1.73l-.91 1.66-1.81 3.25c-2.32 4.33-5 8.3-7.45 12.77-.56 1.06-1.23 2.06-1.85 3.08l-1.9 3.05c-1.27 2-2.51 4.07-3.93 6l-4.18 5.93c-.35.5-.72 1-1.1 1.47l-1.14 1.44z" transform="scale(1, 1) skewX(0)"/></g><defs><filter id="u3NUmL7_H1NNjZ5jHV3Gb"><feColorMatrix type="matrix" values="0 0 0 0 0.25390625 0 0 0 0 0.69921875 0 0 0 0 0.28515625 0 0 0 1 0"/></filter></defs></svg></g><g filter="url(#colors4520518234)"><svg xmlns="http://www.w3.org/2000/svg" xmlns:xlink="http://www.w3.org/1999/xlink" width="48" height="48.426" x="6" y="6.053" class="image-svg-letter" viewBox="0.002 -0.004 47.52 54.44"><path d="M47.81-54.58L31.39-24.26L31.39-0.14L19.87-0.14L19.87-22.61L0.29-54.58L13.10-54.58L28.22-28.73L41.76-54.58L47.81-54.58Z" transform="translate(-0.28800000000000003 54.57600000000001)"/></svg></g></g><mask id="b32a48ff-090b-48a0-81a5-78aa13a69877"><g fill="#fff"><svg xmlns="http://www.w3.org/2000/svg" viewBox="0 0 494.995 499.391" style="overflow:visible" width="60" height="60.533" x="0" y="0" filtersec="colorsf8673697949"><g><path d="M478.41 237.11c0 .95.14 1.88.17 2.76s0 1.72 0 2.48a12 12 0 0 1-.43 3.52c-.38 1-.74.72-1-.59a22.36 22.36 0 0 1-.34-2.76c-.1-1.17-.09-2.59-.23-4.24-.2-3-.4-6-.59-9.05 0-.38-.05-.76-.09-1.13l-.13-1.13-.28-2.25-.56-4.5-.28-2.25-.14-1.12-.2-1.12-.81-4.46-.81-4.46-.2-1.12-.26-1.1-.52-2.2-1-4.42c-.36-1.46-.65-2.95-1.1-4.39l-2.52-8.7c-1.91-5.73-3.78-11.48-6.09-17.07a224.76 224.76 0 0 0-16.53-33.34 238.32 238.32 0 0 0-21.86-30.12A223.51 223.51 0 0 0 355 50.77l-3.81-1.94-1.91-1c-.63-.33-1.3-.6-1.94-.9l-7.8-3.52c-2.63-1.1-5.3-2.1-7.95-3.16l-2-.79-1-.39-1-.34-4.05-1.38c-5.36-1.94-10.88-3.38-16.36-5l-8.32-1.95-2.05-.4c-.69-.16-1.4-.26-2.1-.4l-4.2-.76-4.21-.77c-.7-.14-1.41-.23-2.11-.32l-2.12-.27c-2.83-.36-5.65-.77-8.48-1.08l-8.53-.68-2.13-.17c-.71-.05-1.43-.05-2.14-.08l-4.27-.12c-5.71-.3-11.41 0-17.11.1-5.69.45-11.4.69-17 1.52a227.16 227.16 0 0 1 89.5 7l4 1.15 2 .58c.65.2 1.3.44 1.95.66l7.8 2.7 1 .33.95.39 1.92.76 3.83 1.54c1.27.52 2.56 1 3.82 1.55l3.75 1.72 3.75 1.71 1.88.86c.62.29 1.22.62 1.84.93l7.33 3.79c.61.31 1.21.65 1.8 1l1.79 1 3.57 2.07c1.18.7 2.39 1.36 3.55 2.09l3.47 2.24 3.46 2.23 1.63 1.16 1.68 1.2 6.71 4.79c2.19 1.67 4.33 3.4 6.49 5.09l1.63 1.28.81.64.77.67 3.12 2.71c4.23 3.52 8.12 7.42 12.12 11.2 3.78 4 7.67 7.9 11.18 12.14l3 3.51c1 1.19 1.9 2.44 2.84 3.66l2.77 3.66c.45.61.91 1.2 1.34 1.81s.83 1.23 1.23 1.84a87.51 87.51 0 0 1 4.84 7.75c.79 1.68.6 2-1.39-.22-2.59-2.62-.46 1 .76 3.64a12.49 12.49 0 0 1-1.24-1.47c-.43-.58-.89-1.23-1.39-1.84.5.66.94 1.35 1.38 2a39.49 39.49 0 0 1 4.1 7.56c-2.77-4.29-5.35-8.59-8.32-12.59l-2.16-3.05-1.08-1.52-1.15-1.47c-1.54-2-3.07-3.93-4.62-5.91-.16 0-.43-.27-.36 0a7.66 7.66 0 0 0 1.07 3 38.19 38.19 0 0 0 2.22 3.43c.52.75 1.19 1.57 1.86 2.57s1.47 2.11 2.38 3.37l2.18 3 1.09 1.52c.35.52.68 1 1 1.57 1.35 2.09 2.7 4.19 4.06 6.28.7 1 1.3 2.13 1.92 3.21l1.87 3.25 1.87 3.25c.64 1.08 1.16 2.22 1.74 3.32l3.42 6.68 3.08 6.84c.5 1.14 1 2.27 1.52 3.43l1.36 3.49 1.37 3.48c.44 1.17 1 2.31 1.33 3.51l2.86 8.57c.86 2.88 1.58 5.78 2.33 8.58.17.69.35 1.39.54 2.11s.3 1.44.45 2.16c.28 1.43.53 2.82.74 4.05.41 2.47.6 4.29.31 4.54-.67.56-1.49 1-3.7-6.26-.19-.64-.39-1.29-.59-2s-.38-1.33-.63-2l-1.41-4.06c-.46-1.38-.94-2.78-1.41-4.19l-.36-1.06-.4-1.05c-.27-.7-.54-1.41-.82-2.11-.78-2-1.59-4.25-2.32-6.11a18.44 18.44 0 0 0-2-3.88c-1.34-1.51-3.2-6.48-4.57-9.76a78.94 78.94 0 0 0-3.94-8.94l-2.29-4.41c-.4-.73-.76-1.48-1.19-2.19l-1.28-2.15c-3.33-5.75-7-11.28-10.24-16.71a40.18 40.18 0 0 0-2.86-3.56c-.84-.89-.58-.08.4 1.43 1.08 1.7 2.08 3.23 2.92 4.7s1.53 2.88 2.2 4.21 1.28 2.58 1.9 3.83c.32.61.59 1.25.86 1.89s.55 1.28.83 1.92a46.75 46.75 0 0 1 2.2 5.77c.31 1.13.13 1.5-.39 1a19.9 19.9 0 0 1-2.89-3.62c-.69-1-1.47-2.18-2.36-3.56-.22-.35-.44-.71-.68-1.08l-.78-1.11-1.67-2.43c-.93-1.36-1.79-2.6-2.62-3.77l-.62-.87-.64-.81-1.28-1.33-2.46-3q-.6-.76-1.23-1.53c-.41-.52-.82-1-1.28-1.55l-3.78-4.37-1.81-2.11c-.58-.71-1.24-1.34-1.84-2l-3.65-4c-.61-.66-1.2-1.34-1.81-2s-1.27-1.29-1.91-1.94c-1.28-1.3-2.56-2.63-3.87-4l-1-1-1.05-1-2.14-2.07-2.17-2.19-1.14-1.12-.57-.57-.61-.55-5.1-4.62c-.8-.72-1.44-1.34-2-1.78s-1.15-.81-1.58-1.05a12 12 0 0 0-2-1.14 16.2 16.2 0 0 1-2.68-1.48c-.54-.37-1.13-.81-1.8-1.35s-1.47-1.11-2.34-1.84c-2.11-1.76-3.6-3.14-5.49-3.85-1-.34-1-.17-.37.43a48.54 48.54 0 0 0 4.1 3.12c.73.52 1.5 1.07 2.27 1.67.38.31.76.62 1.13 1s.71.74 1.06 1.14l-1.09-.78-1.12-.72-2.17-1.45q-2.13-1.44-4.15-2.87c-.66-.5-1.36-.92-2-1.36l-2-1.32c-1.33-.88-2.63-1.75-3.91-2.63l-1-.65-1-.61-1.98-1.31-3.83-2.42c-.63-.39-1.26-.81-1.9-1.19l-2-1.1-3.89-2.19c-2.52-1.48-5.05-2.76-7.3-3.83A32.52 32.52 0 0 0 332.4 62a13 13 0 0 0-1.41-.42 9 9 0 0 0-1.31-.14c-.28 0-3.21-1.11-4.87-1.77a200.85 200.85 0 0 0-37.16-10.37 241.22 241.22 0 0 0-38.34-3.66h-5.21l-2.6.05h-1.29l-1.29.11-5.14.44-2.55.22-1.26.12-1.26.18-6.5.95-1.63.23c-.54.07-1.08.14-1.62.26l-3.23.62-6.45 1.23-6.39 1.53-3.2.75-3.15.91-6.32 1.8c-2.08.68-4.15 1.41-6.23 2.1l-3.11 1c-1 .35-2 .79-3.07 1.18l-6.12 2.39c-2 .83-4 1.78-6 2.65l-3 1.34-.75.33-.73.38-1.47.74-5.87 3a204.43 204.43 0 0 0-22.34 13.83c-3.74 2.51-7.21 5.41-10.8 8.14-1.76 1.42-3.44 2.93-5.17 4.38L113 98.79c-.85.75-1.65 1.55-2.48 2.32l-5 4.65-4.72 4.89c-.78.82-1.58 1.62-2.35 2.45l-2.24 2.57c-1.48 1.71-3 3.39-4.45 5.14a223.23 223.23 0 0 0-17.43 24.57l-3.78 6.52c-.66 1.08-1.21 2.2-1.79 3.32l-1.72 3.35-1.74 3.35-1.56 3.43-1.56 3.42c-.52 1.15-1.08 2.28-1.51 3.46l-2.79 7c-.5 1.15-.87 2.36-1.28 3.54l-1.22 3.57-1.22 3.56-1 3.63-1 3.62c-.33 1.21-.74 2.4-1 3.63l-1.72 7.35c-.14.61-.3 1.22-.42 1.84l-.33 1.85-.69 3.71-.68 3.71c-.23 1.24-.34 2.5-.52 3.74l-1 7.49a207.07 207.07 0 0 0 4.26 67.43 220.23 220.23 0 0 0 30.08 70.19c1.46 2.13 3 4.29 4.47 6.49.37.55.78 1.07 1.19 1.6l1.2 1.59c.83 1.06 1.67 2.12 2.5 3.19 1.62 2.17 3.48 4.16 5.25 6.23l2.66 3.07c.91 1 1.87 2 2.79 2.94l3.44 3.64.86.91.91.86 1.81 1.74 3.58 3.5.9.88.93.84 1.85 1.68c-1.14-.91-2.33-1.79-3.45-2.77l-3.33-3-3.32-3.07c-1.08-1.06-2.11-2.18-3.16-3.27-2.08-2.19-4.2-4.34-6.07-6.66l-2.87-3.39-1.42-1.66-1.32-1.72-3.74-4.91-1-1.22c-.31-.41-.59-.84-.89-1.26l-1.77-2.53c-1.18-1.69-2.4-3.34-3.54-5.06l-3.31-5.2-1.66-2.59-1.53-2.67-3.07-5.33c-.54-.88-1-1.81-1.44-2.72l-1.4-2.74-1.41-2.73-.7-1.37c-.23-.46-.43-.93-.64-1.4l-2.93-6.49c-.24-.54-.5-1.08-.73-1.63l-.64-1.66-1.3-3.31c-1.83-4.38-3.17-8.93-4.71-13.41-.69-2.27-1.28-4.56-1.92-6.84l-1-3.42-.77-3.46-1.44-6.93-1.19-7c-.19-1.17-.44-2.33-.58-3.5l-.42-3.53-.43-3.53-.21-1.76c-.08-.58-.15-1.17-.18-1.76l-.49-7.1-.13-1.77-.07-.88v-.89l-.07-3.56-.11-3.55v-3.56l.19-7.12v-2.67l.07-.89.27-3.55.26-3.55c.11-1.18.14-2.37.32-3.55l.91-7.27.26-1.84c.08-.6.21-1.2.31-1.8l.65-3.61c.75-4.84 2-9.57 3.08-14.33.13-.6.31-1.18.48-1.77l.51-1.76 1-3.52 1-3.53 1.19-3.46 1.18-3.47.6-1.75.29-.87.34-.85 2.69-6.81a205.94 205.94 0 0 1 38.48-60.39A210.77 210.77 0 0 1 189.79 54c3.69-1 9-2.48 9.62-3.45-3.29.71-6.78 1.64-10.29 2.63L183.91 55l-2.58.88c-.86.3-1.72.56-2.55.91A207.6 207.6 0 0 0 52.71 187.64c-8.54 26.14-11.18 53.81-9.31 81.62.09 1.26.13 2.52.25 3.79l.45 3.8c.15 1.27.31 2.55.46 3.83s.29 2.57.55 3.85c.47 2.55.93 5.13 1.4 7.71.2 1.3.57 2.57.86 3.86s.61 2.56.92 3.85.59 2.58.94 3.86l1.13 3.81 1.12 3.82.56 1.91.66 1.88 2.61 7.51 2.94 7.34c.79 2.15 1.79 4.2 2.72 6.28l1.41 3.11c.48 1 .91 2.09 1.46 3.09 2.09 4 4 8.14 6.39 12l1.68 3 .84 1.48c.28.49.61 1 .9 1.44q1.83 2.88 3.65 5.76l.91 1.45 1 1.4 2 2.79 2 2.81c.32.47.64.94 1 1.4l1.05 1.36a194.7 194.7 0 0 0 31 32.85 237.34 237.34 0 0 0 26.17 18.86A238.61 238.61 0 0 0 171 444a205 205 0 0 0 45.34 13.4l2.92.53 2.94.38 5.89.77 1.47.19 1.48.12 3 .22 5.92.46c2 .08 4 .11 5.94.16l3 .07c1 0 2 .09 3 0l5.94-.17c2-.07 3.95-.05 5.92-.26a226.75 226.75 0 0 0 40.24-6.16 203.65 203.65 0 0 0 38-13.48 201 201 0 0 0 35.85-21.8l5.48-4.31c.46-.36.93-.7 1.37-1.09l1.31-1.14 2.64-2.27c3.59-3 6.86-6.26 10.26-9.41 1.66-1.62 3.23-3.33 4.85-5l2.42-2.49c.79-.85 1.53-1.74 2.3-2.6l4.6-5.22 4.33-5.43c.72-.91 1.46-1.79 2.16-2.72l2-2.81c1.35-1.88 2.75-3.73 4.06-5.64l3.8-5.81.95-1.45.48-.73.43-.75 1.76-3a203.62 203.62 0 0 0 12.54-24.8c1.65-4.18 3.47-8.09 4.88-12.2.73-2 1.53-4.07 2.2-6.19s1.26-4.3 1.86-6.55c.36-1.35.69-2.35.91-3.12a10.48 10.48 0 0 1 .56-1.65 1.68 1.68 0 0 1 .8-.95c.67-.47.07 3-1.12 7.07-.56 2.06-1.14 4.1-1.72 6.11s-1.39 3.94-2.08 5.9c-1.3 3.94-3 7.72-4.5 11.61l-.71 1.81c-.24.61-.53 1.19-.79 1.78l-1.6 3.54-1.6 3.55-.41.88-.44.87L441 346c-1.2 2.3-2.35 4.62-3.58 6.91l-3.89 6.72-1 1.68-1.06 1.63-2.11 3.26-2.11 3.27c-.7 1.08-1.5 2.11-2.24 3.16l-2.27 3.16-1.13 1.57c-.37.53-.75 1.06-1.16 1.55l-4.83 6.08c-.41.5-.79 1-1.22 1.51l-1.28 1.45-2.56 2.92-2.56 2.86-2.7 2.79-2.69 2.79c-.9.92-1.77 1.88-2.73 2.74l-5.65 5.31a229.2 229.2 0 0 1-24.36 19c-1.91 1.28-3.87 2.46-5.8 3.7l-2.91 1.94c-1 .61-2 1.14-3 1.72l-6 3.4c-2 1.08-4.09 2.08-6.13 3.13l-3.03 1.51c-1 .5-2.1.94-3.14 1.42l-6.27 2.82c-2.12.86-4.27 1.67-6.4 2.51l-3.2 1.25c-1.08.4-2.17.74-3.26 1.11l-6.52 2.18c-2.19.66-4.41 1.24-6.61 1.87l-3.31.93c-1.11.3-2.24.52-3.35.78l-6.7 1.52a208.38 208.38 0 0 1-27.24 3.59 223.49 223.49 0 0 1-45-1.54 204.49 204.49 0 0 1-43.73-10.95 216 216 0 0 1-31.66-15l-3.8-2.19-.95-.55-.92-.59-1.84-1.19-3.69-2.37-1.84-1.19c-.61-.39-1.19-.84-1.79-1.26-2.37-1.71-4.77-3.38-7.13-5.11l-6.88-5.43A218 218 0 0 1 92.58 390c-3.9-4.36-7.48-9-11-13.64l-5.08-7.15-4.73-7.38c-.34-.55-.72-1.09-1-1.65l-1-1.69-1.94-3.38-1.95-3.38-1.78-3.46-1.78-3.47c-.6-1.15-1.22-2.3-1.73-3.5l-3.24-7.1A236.07 236.07 0 0 1 47 304.63c.36 2.07.79 4.25 1.28 6.52.26 1.13.49 2.3.8 3.46l1.06 3.52 1.12 3.62c.39 1.21.76 2.45 1.26 3.66.94 2.43 1.92 4.89 2.91 7.37a238.7 238.7 0 0 0 15.67 30.1 219.33 219.33 0 0 0 19.78 27.17l1.89 2.24c.64.74 1.24 1.52 1.93 2.22l4 4.28 2 2.14c.67.72 1.4 1.37 2.1 2.06l4.24 4.08c1.38 1.39 2.91 2.63 4.37 3.93l4.44 3.86c1.53 1.24 3.08 2.44 4.62 3.66l2.31 1.82 1.15.91c.39.3.8.57 1.2.86a230.66 230.66 0 0 0 40.57 23.82c2.37 1.18 4.85 2.14 7.33 3.16s4.95 2.08 7.53 2.91 5.12 1.81 7.72 2.65l7.9 2.28a216.92 216.92 0 0 0 32.57 6 230.21 230.21 0 0 0 54.39-1.19 220.24 220.24 0 0 0 26.64-5.74c4.41-1.12 8.69-2.68 13-4.09.54-.19 1.09-.35 1.62-.55l1.59-.62 3.17-1.25 3.18-1.23 1.59-.62 1.56-.7a215.84 215.84 0 0 0 67.25-45.46 212.27 212.27 0 0 0 45.59-67.38 221.82 221.82 0 0 0 17.55-82.79 271.78 271.78 0 0 1-3.22 38.2 167.18 167.18 0 0 1-10.35 37.21c-1.67 3.72-3.19 8-5.19 12.24-.47 1.06-.95 2.14-1.42 3.22s-.92 2.17-1.48 3.2c-1.07 2.1-2.14 4.18-3.18 6.21a226.75 226.75 0 0 1-18.81 29.22l-5.4 6.82-5.71 6.57c-.48.54-.94 1.1-1.44 1.63l-1.5 1.57-3 3.14-1.51 1.57c-.5.53-1 1.06-1.53 1.54l-3.16 3-3.15 3a20 20 0 0 1-1.62 1.45l-1.65 1.42-3.29 2.85-1.64 1.42c-.56.46-1.14.9-1.71 1.35-2.29 1.78-4.55 3.59-6.85 5.35l-7.09 5a224.59 224.59 0 0 1-30.19 17.23 208.64 208.64 0 0 1-44.39 14.82l-2.21.5-1.1.24-1.11.2-4.34.78-4.18.8c-.68.15-1.35.24-2 .34l-2 .31c-2.57.41-5 .85-7.06 1.31a55.69 55.69 0 0 0-5.49 1.19h-.15c5.43-.34 10.83-1.23 16.28-1.91l8.11-1.47 2-.36c.68-.13 1.34-.3 2-.45l4-.92 4-.91c1.34-.31 2.66-.73 4-1.09l4-1.1c1.32-.39 2.66-.69 4-1.15l7.81-2.57c1.32-.4 2.57-.94 3.85-1.41l3.83-1.46 2.86-1.09c.95-.37 1.87-.81 2.81-1.21l5.6-2.47c1.89-.77 3.68-1.77 5.52-2.66l5.48-2.74 5.34-3c1.77-1 3.59-2 5.29-3.1l5.19-3.28c.86-.56 1.75-1.07 2.58-1.66l2.51-1.77 5-3.54c1.64-1.21 3.23-2.51 4.85-3.76l2.42-1.89 1.21-.94c.4-.32.77-.67 1.16-1l4.65-4 2.31-2 2.22-2.12 4.44-4.23c.75-.69 1.44-1.45 2.14-2.19l2.11-2.23 2.11-2.22c.69-.76 1.43-1.46 2.07-2.26a235.28 235.28 0 0 0 25.19-33.76 212.16 212.16 0 0 0 18.28-37.61c.58-1.68 1.15-3.37 1.73-5.06l.87-2.53.44-1.26.37-1.29c.91-1 1.8-1.79 2.72-2.83a213.85 213.85 0 0 1-45.89 83.19A226.53 226.53 0 0 1 381 426.43 215.21 215.21 0 0 1 340.73 450l-4.14 1.85c-.68.32-1.39.58-2.1.86l-2.11.82-4.23 1.64-2.15.83-2.14.72c-2.87.94-5.73 1.94-8.61 2.85l-8.68 2.43a229.41 229.41 0 0 1-35.69 6.15c-3 .22-6 .47-9 .66l-9.07.22c-.76 0-1.51.07-2.27 0l-2.26-.06-4.54-.12c-1.51-.05-3 0-4.53-.14l-4.52-.35a208.72 208.72 0 0 1-35.76-5.68l-2-.45c-.66-.15-1.3-.36-1.94-.54l-3.88-1.1-3.87-1.1-1-.27-1-.32-1.91-.65c-2.54-.86-5.1-1.69-7.63-2.58l-7.52-2.93-1.89-.73c-.62-.26-1.23-.55-1.84-.82l-3.7-1.65-3.7-1.64c-1.23-.55-2.41-1.2-3.62-1.8l-3.63-1.82-1.81-.9-.91-.46-.88-.5-7.09-4a103.41 103.41 0 0 0 12.1 7.68 156.51 156.51 0 0 0 14.52 7 234.13 234.13 0 0 0 67.62 16.52l5.58.46c1.87.13 3.74.12 5.61.2l-3.32-.29-1.67-.15-1.69-.23c-2.26-.3-4.57-.59-6.93-.84s-4.77-.62-7.25-.9c-1.24-.14-2.5-.28-3.78-.4l-1.94-.17c-.65 0-1.3-.16-2-.23-1.68-.2-3.72-.52-5.76-.89-1-.18-2.05-.38-3-.58s-1.91-.49-2.77-.72c-1.66-.48-3.37-.91-5.09-1.32l-2.59-.61c-.87-.19-1.71-.47-2.57-.7-1.71-.49-3.41-1-5.07-1.49a38.82 38.82 0 0 1-4.83-1.72l1.72.59 1.75.5 3.5 1 3.49 1 1.75.5 1.78.41 7.08 1.65c.6.14 1.18.29 1.78.41l1.79.32 3.58.65 3.58.65c.6.1 1.19.22 1.79.31l1.81.23 7.22.94 1.8.23 1.82.14 3.63.28 3.63.29 1.82.14 1.82.05c4.85.11 9.71.37 14.56.15l3.65-.09c1.21 0 2.43 0 3.64-.14l7.26-.53 1.82-.14.91-.06.9-.12 3.61-.45 3.61-.45 1.81-.23c.6-.06 1.21-.15 1.8-.26l7.17-1.27 1.8-.32c.59-.1 1.19-.21 1.78-.35l3.55-.82 3.55-.81 1.77-.41.89-.2.87-.25 7-2c2.35-.6 4.64-1.43 6.94-2.2l3.45-1.16c1.15-.39 2.31-.75 3.43-1.22l6.77-2.67 1.7-.66c.56-.23 1.11-.5 1.66-.74l3.32-1.5 3.32-1.5 1.66-.75 1.62-.83 6.48-3.32c.54-.28 1.09-.53 1.62-.84l1.57-.91 3.16-1.82c2.1-1.21 4.24-2.38 6.25-3.73l6.13-3.94c2-1.35 4-2.8 5.95-4.2l3-2.11c1-.73 1.91-1.5 2.87-2.25l5.71-4.51 5.5-4.79c.91-.8 1.85-1.57 2.73-2.41l2.63-2.52c1.56-1.5 3.35-2.83 5-4.23-.28.61-.3.88-.62 1.2-1.48 1.5-3 3-4.44 4.47l-2.21 2.24-2.31 2.12-4.63 4.26c-.76.73-1.58 1.39-2.39 2.06l-2.44 2 1-.8 2.76-2.18c.9-.74 1.77-1.53 2.66-2.3l5.32-4.61c1.72-1.6 3.4-3.23 5.1-4.85l2.55-2.42c.84-.83 1.63-1.69 2.45-2.54l4.87-5.09c1.56-1.75 3.09-3.54 4.64-5.3l2.31-2.66c.76-.9 1.47-1.83 2.2-2.75l4.38-5.53c1.39-1.89 2.74-3.81 4.12-5.72l2.06-2.86c.66-1 1.28-2 1.92-3l3.84-5.92c1.21-2 2.37-4.06 3.55-6.09l1.78-3.05c.57-1 1.09-2.08 1.63-3.12l3.25-6.27c1-2.12 2-4.27 3-6.41l1.46-3.21c.49-1.07.88-2.18 1.33-3.26l2.47-6.19c.44-1 .77-2.09 1.14-3.13l1.08-3.15 1.09-3.15.54-1.58c.19-.52.32-1.06.48-1.59l1.85-6.4c.73-.83 1.4-1.4 2.13-2.26-1.07 3.7-2.09 7.42-3.22 11.1l-1.87 5.46-.93 2.74-.46 1.37-.53 1.34a216.9 216.9 0 0 1-22 43.08l-1.28 2c-.42.66-.83 1.32-1.29 1.94l-2.64 3.72-2.5 3.62c-.4.59-.83 1.15-1.24 1.71l-1.23 1.65c-1.59 2.16-3 4.21-4.26 6.07a53.06 53.06 0 0 0-3.2 4.84c-.42.74-1 1.56-1.58 2.44-.32.44-.65.9-1 1.37s-.77.92-1.19 1.41c-1.68 1.91-3.65 4-5.76 6.24a219.39 219.39 0 0 1-26.21 22.62L377 436c-1 .77-2.16 1.43-3.25 2.12l-3.28 2.08-3.29 2.08c-1.1.67-2.24 1.29-3.37 1.93-2.25 1.27-4.49 2.59-6.76 3.83-4.63 2.32-9.19 4.8-14 6.82l-3.54 1.6c-.59.26-1.18.54-1.78.79l-1.81.71-7.23 2.84-.91.36-.92.31-1.84.62-3.68 1.24-3.68 1.24c-1.24.38-2.49.72-3.74 1.08-2.49.69-5 1.43-7.48 2.1l-7.58 1.73-1.89.44-.95.21-1 .17-3.83.68-3.82.67c-1.28.22-2.55.47-3.84.6l-7.7.95-1.93.23c-.64.06-1.29.1-1.93.15l-3.87.27a225.47 225.47 0 0 1-48.36-1.63c-1-.15-2.1-.27-3.23-.47l-3.51-.66c-2.38-.44-4.8-.87-6.95-1.19-4.25-.85-7.41-1.23-7-.25.19.41-4.55-.51-7.88-1.53-2.51-.7-5.16-1.47-7.15-2.15s-3.28-1.39-3.17-1.64c.25-.58-1.78-1.52-4.66-2.58-.72-.27-1.5-.52-2.3-.82l-2.45-1-4.86-1.93-2.15-.86c-.72-.29-1.41-.63-2.11-.94-1.39-.63-2.75-1.24-4.06-1.8s-2.56-1.07-3.73-1.49-2.2-.87-3.16-1.13l2.58 1.35 2.63 1.24 5.27 2.49c1.74.87 3.55 1.59 5.35 2.34l5.39 2.24q-4-1.26-8-2.69l-1-.35-1-.41-2-.83-3.91-1.69c-1.29-.59-2.62-1.12-3.88-1.78l-3.81-2c-2.52-1.34-5.09-2.59-7.52-4.11-1.32-.7-2.74-1.46-4.2-2.28s-3-1.64-4.49-2.64-3-2-4.53-3-3-2-4.4-3.14c-2.61-2-4.69-3.64-6.73-5.11s-3.92-3-6.3-4.56c-.78-.53-1.88-1.33-3-2.22s-2.25-1.93-3.2-2.79c-4.49-3.89-8.71-8.1-12.95-12.27l-6.14-6.5-.77-.81-.73-.85-1.46-1.69-2.92-3.39a237.22 237.22 0 0 1-21-29l-3.19-5.3c-1.06-1.81-2.19-3.62-3.15-5.58-2-3.89-4.09-7.9-5.83-12.32-.47-1.05-.95-2.1-1.42-3.16s-1-2.11-1.42-3.2L41 331.31c-1.66-2.51-2.84-5.72-4.19-9.89a243.14 243.14 0 0 1-8.66-37.59 241.19 241.19 0 0 1-1.79-48v-.61a198.59 198.59 0 0 0 .34 42.13A229.66 229.66 0 0 0 44 341.91c1.14 2.55 2.26 5.11 3.42 7.65l3.72 7.44.94 1.87c.33.62.69 1.22 1 1.83l2.06 3.64 2.1 3.66c.69 1.21 1.48 2.37 2.21 3.56a215.08 215.08 0 0 0 19.77 27.05 225.25 225.25 0 0 0 80 59.92l3.49 1.6 3.58 1.42c2.39.94 4.76 1.92 7.16 2.82l7.3 2.48 1.83.62c.6.21 1.21.41 1.84.57l3.71 1.06a224.49 224.49 0 0 0 30.12 6.54l7.65 1 1.91.25 1.92.15 3.84.31 3.84.32 1.92.16 1.92.06 7.69.25 1.92.07h1.92l3.84-.06h5.76c.64 0 1.28-.07 1.92-.1l7.65-.46 1.91-.11c.64 0 1.27-.12 1.91-.18l3.8-.41c2.14-.23 4.34-.45 6.55-.76l6.65-1.17 3.36-.6c1.13-.19 2.23-.5 3.34-.75l6.63-1.54c1.68-.36 3.24-.83 4.71-1.22s2.82-.73 4.05-1 2.32-.48 3.25-.6a13.05 13.05 0 0 1 2.28-.18c-1.4.54-2.81 1-4.22 1.41l-4.25 1.36c-1.44.43-2.89.93-4.41 1.31s-3.11.73-4.75 1.09l4.36-1 1.09-.26 1.07-.3 2.16-.6c14.7-3.85 29.48-9 43.32-16.5 2.59-1.43 5.4-2.72 8.13-4.28l4.15-2.25c1.39-.76 2.8-1.47 4.1-2.32 3.94-2.48 8-4.81 11.76-7.64 1.91-1.39 3.86-2.76 5.77-4.23s3.74-3.09 5.62-4.7a10.77 10.77 0 0 0-3.51 1.75c-.73.49-1.49 1-2.26 1.6l-1.13.86-1.12.8q-2.56 1.89-5.12 3.7l-2.55 1.81-2.6 1.57-5.23 3.22-1.3.8c-.44.26-.89.49-1.33.73l-2.68 1.45-5.33 2.85c-1.79.92-3.62 1.73-5.43 2.6s-3.62 1.73-5.44 2.56l-5.56 2.35-4.26 1.82-4.35 1.62-4.34 1.64c-.73.26-1.44.57-2.18.79l-2.21.72-4.41 1.43-2.21.72c-.73.25-1.47.49-2.22.68l-8.95 2.46a232.43 232.43 0 0 1-36.57 6.09c-4.74.28-9.48.72-14.24.7-2.38 0-4.76.11-7.14.12l-7.13-.24-3.56-.12c-1.19 0-2.37-.18-3.55-.27l-7.08-.63c-.59-.06-1.18-.09-1.77-.17l-1.76-.26-3.5-.51-3.5-.52c-1.16-.17-2.32-.33-3.47-.59a22.12 22.12 0 0 1-4.95-1.48c1.88.22 3.75.5 5.6.8.93.18 1.87.25 2.8.39l2.8.38 5.55.79c.92.16 1.84.21 2.76.29l2.76.21a234.17 234.17 0 0 0 65.18-4.31l8-1.83c1.33-.28 2.64-.68 4-1l3.94-1.11 3.94-1.11c1.3-.41 2.59-.87 3.89-1.3l3.88-1.3 1.94-.65 1-.33 1-.37 7.62-3c.64-.26 1.28-.49 1.91-.76l1.86-.84 3.74-1.68 3.74-1.68c1.23-.58 2.43-1.23 3.65-1.84l3.65-1.86 1.83-.93c.61-.3 1.22-.62 1.8-1l6.08-3.48c1-.59 2-1.13 3-1.75l2.92-1.88 5.79-3.73 5.54-4 2.73-2c.9-.67 1.75-1.41 2.62-2.11 1.73-1.43 3.44-2.85 5.13-4.28.86-.69 1.66-1.46 2.46-2.21l2.39-2.27 2.34-2.27c.77-.77 1.56-1.5 2.28-2.32 1.13-1.24 2.88-2.84 4.36-4.25l2.58-2.43 2.45-2.55 4.91-5.11 4.67-5.33 2.33-2.67c.76-.9 1.47-1.84 2.21-2.76l4.4-5.56c1.42-1.89 2.77-3.83 4.15-5.74l2.07-2.88c.69-1 1.3-2 1.95-3l3.85-5.95c.43-.63.81-1.3 1.18-1.79s.7-.85 1-.91c-.29.68-.64 1.4-1 2.15s-.89 1.51-1.37 2.29c-1 1.57-2.05 3.21-3.07 4.81l-1.4 2.17-1.52 2.11c-1 1.4-2 2.77-2.84 4.05s-1.56 2.49-2.14 3.48a6.71 6.71 0 0 0-1 2.51c0 .54-2.42 3.6-4 5.66s-3.22 3.91-4.81 5.86l-2.38 2.88c-.81.93-1.65 1.82-2.46 2.72-.37 1.41.5 1.15 2.17-.19.41-.34.88-.74 1.39-1.2s1-1 1.56-1.63c1.11-1.19 2.36-2.59 3.68-4.11a319.32 319.32 0 0 0 26.08-35.33l1.26-2c.2-.33.41-.66.6-1l.55-1q1.1-2 2.11-4.1t2-4.11c.63-1.37 1.13-2.8 1.67-4.19 1.31-3.51 2.83-6.94 4.27-10.78.76-1.9 1.58-3.87 2.48-5.95l2.62-6.7-1.1 4-.57 2c-.19.67-.45 1.33-.67 2-.91 2.65-1.86 5.3-2.84 7.93l-.36 1-.41 1-.84 1.93-1.68 3.86c-.57 1.28-1.12 2.56-1.71 3.83l-1.89 3.73-2.04 3.78c-.63 1.23-1.24 2.47-1.95 3.65l-4.05 7.13c-.64 1.19-1.39 2.32-2.1 3.46l-2.1 3.42-2.06 3.4c-.7 1.12-1.44 2.19-2.15 3.29l1.38-1.74c.47-.59.92-1.18 1.34-1.81q1.27-1.86 2.55-3.77l2.53-3.87c.43-.64.83-1.31 1.21-2l1.17-2 2.34-4.05c.79-1.35 1.59-2.68 2.29-4.07 1.46-2.75 2.94-5.45 4.47-8.09a36.76 36.76 0 0 1-2.79 8.45c-.39.88-.75 1.82-1.25 2.74s-1 1.89-1.55 2.88c-1.08 2-2.29 4.11-3.58 6.33A242.72 242.72 0 0 1 417.17 415a255.12 255.12 0 0 1-25.86 22.9c-.54.44-1.11.84-1.68 1.25l-1.7 1.22-3.41 2.44c-1.14.8-2.26 1.65-3.42 2.42l-3.52 2.29-3.51 2.29-1.76 1.14c-.59.37-1.21.71-1.81 1.07l-7.24 4.23-.91.53-.93.48-1.86 1-3.72 1.93c-1.24.64-2.48 1.29-3.73 1.91l-3.81 1.74-3.81 1.72c-1.27.57-2.53 1.17-3.83 1.66l-7.78 3c-.65.24-1.28.51-1.94.73l-2 .65-3.92 1.32-3.91 1.34c-1.3.45-2.64.78-3.95 1.18l-7.92 2.32-8 1.93-2 .48c-.67.17-1.33.33-2 .44l-4.05.76-4 .75c-1.35.24-2.69.51-4.06.65l-8.19 1-2.05.24-2.06.13-4.13.24c-5.62.43-11.26.35-16.91.49h-2.12l-2.11-.06-4.24-.12-4.24-.11-4.23-.31-4.24-.32-2.11-.15c-.71-.05-1.42-.09-2.12-.2l-8.42-1-2.11-.26c-.7-.09-1.39-.24-2.09-.35l-4.18-.74c-2.78-.52-5.58-.94-8.31-1.64l-7.33-1.71c-1.23-.26-2.42-.63-3.63-1l-3.6-1-3.6-1c-.6-.18-1.21-.33-1.8-.52l-1.77-.59-7.09-2.36-1.77-.59-1.74-.67-3.48-1.34-3.46-1.43-1.73-.67c-.58-.23-1.14-.49-1.71-.74-4.54-2-9.14-3.92-13.55-6.23-13.36-6.65-25.58-14.94-37.59-24l-4.1-3.17 6.43 5.08c.54.41 1.06.85 1.62 1.25l1.67 1.19 3.33 2.39 3.34 2.38c1.11.79 2.28 1.49 3.42 2.24 2.31 1.47 4.59 3 6.91 4.42a271.25 271.25 0 0 0 51.78 23.89c3.51 1.11 6.69 2 9.95 2.79 1.94.42 3.95.77 6 1.23s4.11.92 6.25 1.42l9.98 1.91 1.26.24 1.27.18 2.53.34 5.08.7v.39a207.68 207.68 0 0 1-38-7.58c-4.83-1.35-9.53-3.1-14.27-4.72l-1.77-.62-1.75-.7-3.48-1.39-3.49-1.39-1.74-.69-1.71-.77-6.84-3.1-1.7-.77c-.57-.27-1.12-.56-1.68-.84l-3.34-1.71-3.34-1.71-1.67-.86c-.55-.28-1.09-.61-1.63-.92l-6.51-3.74c-1.95-1.07-3.79-2.32-5.67-3.51L120 446c-1.82-1.27-3.62-2.57-5.44-3.86l-2.71-1.93c-.45-.33-.91-.64-1.35-1l-1.32-1-5.18-4.14c-.87-.69-1.76-1.35-2.61-2.08l-2.51-2.18-5-4.38c-1.65-1.48-3.23-3.05-4.84-4.58a231.19 231.19 0 0 1-34-40.9l-4.22-6.44c-1.35-2.18-2.61-4.42-3.91-6.64l-1.93-3.34c-.62-1.13-1.18-2.29-1.76-3.44a557.7 557.7 0 0 1-3.46-6.92c-1.57-3.57-3.15-6.88-4.75-10.16s-2.89-6.67-4.3-10.19c-4.44-11.93-7.32-24.63-10.49-36.6-.27-2-.55-3.94-.86-5.9l-.46-2.94c-.15-1-.24-2-.37-3l-.75-5.92-.4-3c-.1-1-.18-2-.27-3l-.54-6-.26-3c-.06-1-.09-2-.13-3-.07-2-.13-4-.2-6l-.08-3c0-1 .05-2 .07-3 .11-3.21.21-6.41.31-9.62s.49-6.41.73-9.61c.07-.8.11-1.61.2-2.41l.3-2.39.59-4.79c.21-1.6.37-3.2.62-4.79l.84-4.76a200.88 200.88 0 0 1 10-37.3c.45-1.3 1-2.76 1.47-4.2a26.61 26.61 0 0 0 .97-4.04c-1.36 3.36-2.76 6.46-3.2 6.87-.06.05.1-.41.07-.45a258.8 258.8 0 0 0-2.42 6.38l-1.15 3.25c-.36 1.09-.65 2.19-1 3.28l-2 7.13c-.36 1.18-.6 2.39-.88 3.59l-.83 3.61-.83 3.61-.41 1.8-.35 1.82-1.31 7.28c-.09 1-.24 2-.33 3.06s-.18 2.16-.29 3.32c-.24 2.31-.55 4.84-.94 7.76-.27 2.7-.48 5.42-.71 8.13l-.33 4.08-.09 4.09-.24 8.19.18 8.19.1 4.1.3 4.09c.21 2.72.38 5.46.62 8.18l1 8.14.25 2c.08.68.16 1.36.29 2l.71 4a228.23 228.23 0 0 0 10.49 39.9 236.5 236.5 0 0 0 53.08 83.86c1 1 1.86 2 2.85 2.9s2 1.86 2.9 2.79c2.31 2.25 4.55 4.57 7 6.65l3.63 3.2c1.22 1.05 2.4 2.15 3.68 3.12l7.59 6c2.62 1.88 5.25 3.73 7.88 5.58a247.11 247.11 0 0 0 33.58 19A230.07 230.07 0 0 0 199 481.2a249.17 249.17 0 0 0 50.24 5.55 219.11 219.11 0 0 0 32.76-2.21l4-.54c.68-.08 1.35-.21 2-.34l2-.37 8.06-1.47 8-1.83c1.33-.31 2.68-.59 4-.92l4-1.09c2.54-.7 5.09-1.38 7.59-2.19l7.48-2.64c2.51-.84 4.95-1.91 7.43-2.92l3.72-1.52 1.88-.75c.62-.26 1.23-.56 1.85-.83a233.56 233.56 0 0 0 81.2-58.65 253.36 253.36 0 0 0 22.46-29.23l2.49-3.87 1.25-1.95c.42-.64.77-1.32 1.16-2l4.57-8c1.41-2.72 2.76-5.47 4.12-8.21l1-2.06c.32-.69.61-1.4.92-2.1l1.8-4.22c2-4.37 3.72-8.88 5.65-13.21l.62-1.43c.2-.47.36-.93.53-1.32.33-.79.62-1.33.8-1.3s.16 1.34-.39 3.24c-1 3.19-2.37 7-3.34 10.05s-1.79 5.45-1.29 6c-.84 2-1.53 3.7-2.14 5.32s-1.25 3-1.79 4.45l-1.63 4.2c-.28.71-.57 1.43-.87 2.17s-.68 1.47-1.06 2.24a15.27 15.27 0 0 0 1.43-1.47c1.34-1.86 4.56-8.34 3.78-5.28a11.4 11.4 0 0 1-1.69 3.9c-.62.87-1.26 1.54-2 2.52a15 15 0 0 0-2.1 4.35c-.64 1.65-1.32 3.31-2.08 5.05s-1.74 3.44-2.78 5.3c-.53.93-1.08 1.89-1.68 2.87s-1.2 2-1.94 3c-1.45 2.05-3.08 4.23-4.95 6.58-.64.8-1.16 1.53-1.63 2.14a17.17 17.17 0 0 0-1.11 1.59c-.55.91-.7 1.51-.47 1.82s-.28 1.59-1.38 3.16a31.17 31.17 0 0 1-4.64 5.22q-2.59 2.37-5.12 4.86l-1.26 1.24-1.3 1.21-2.6 2.45c-1.73 1.64-3.4 3.35-5.13 5s-3.51 3.28-5.25 5l-2.59 2.52-2.58 2.47q-2.68 2.44-5.34 4.93c-1.8 1.62-3.67 3.17-5.49 4.76l-2.74 2.39c-.46.39-.9.8-1.38 1.18l-1.41 1.13c-4.7 3.74-4.44 3.7-4.07 2.43.17-.62-2.8 1.77-4.33 2.76-5.45 3.28-9.32 6.35-12.92 8.92a31.71 31.71 0 0 0-4.32 1.83c-1.23.62-2.27 1.32-3.28 1.92-2 1.25-3.68 2.57-5.76 3.84a37.68 37.68 0 0 1-4.08 2.12c-2.71 1.14-6.37 2.34-6.26 3.14s4.47-1.17 7.9-2.86c10.48-5.36 20.61-11.25 30.46-17.58 2.06-1.41 4.09-2.83 6.12-4.27l3-2.16c1-.76 1.94-1.54 2.91-2.3l5.78-4.64c1.9-1.57 3.72-3.25 5.6-4.86a267.65 267.65 0 0 0 33.51-35.37c-1.57 2.26-3.19 4.54-4.83 6.83s-3.51 4.43-5.3 6.65c-.91 1.1-1.78 2.24-2.74 3.3l-2.89 3.21-2.92 3.21-1.47 1.6-1.54 1.55-6.21 6.14c-.52.52-1.06 1-1.6 1.5l-1.64 1.46-3.27 2.92c-1.09 1-2.17 2-3.28 2.91l-3.4 2.76-3.4 2.77c-1.12.92-2.24 1.85-3.43 2.69-2.43 1.81-5 3.63-7.44 5.43-.61.46-1.24.89-1.86 1.31l-1.84 1.26c-1.21.85-2.37 1.69-3.46 2.54a27.76 27.76 0 0 1-5.43 3.33q-2.39 1.08-4.81 2.36l-2.45 1.3-1.23.68-1.27.64-5.19 2.64c-.87.44-1.73.89-2.6 1.35s-1.75.91-2.65 1.3l-6.75 3.1-3.26 1.51-3.27 1.38c-2.18.92-4.34 1.84-6.52 2.8-1.09.5-2.21.91-3.34 1.35l-3.43 1.35-4.61 1.81-1.2.45-1.23.4-2.49.8-5.09 1.6-2.6.8-2.65.67L305 493l-2.69.65-1.34.31-1.36.26c-3.61.67-7.22 1.31-10.74 1.91a337.06 337.06 0 0 1-47.45 3.26h-4c-1.34-.07-2.7-.16-4.06-.26-2.73-.2-5.49-.4-8.25-.71l-8.3-1.19c-1.38-.21-2.77-.36-4.15-.61l-4.12-.74c.93.09 1.89.21 2.86.34s2 .3 3 .38l6.23.7 3.16.35c1.05.11 2.11.23 3.16.25 2.05.1 4.05.1 6.05.1a54.24 54.24 0 0 0-6.91-1.09c-2.5-.35-5.14-.68-7.73-1a250.68 250.68 0 0 1-96.13-33.7A269.7 269.7 0 0 1 77.65 428C68.56 419.5 60 409.2 52 399.1a48 48 0 0 0-4.87-6.05 38.62 38.62 0 0 0 3.87 6.46c.41.6.87 1.18 1.33 1.76l1.4 1.73 2.62 3.27a245.79 245.79 0 0 0 43.7 42.42 235.1 235.1 0 0 0 48.25 28.66c2 .87 4.12 1.87 6.1 2.81a8.44 8.44 0 0 1 1.83 1c.57.51-1.14 0-2.56-.56-2.29-.91-4.51-1.94-6.76-3l-3.43-1.6c-1.16-.55-2.31-1.16-3.52-1.73a213.58 213.58 0 0 1-33.51-19.43 249.61 249.61 0 0 1-83.94-100.92A262.42 262.42 0 0 1 6.35 306a243.2 243.2 0 0 1-6.24-50L0 251.66c0-1.43.05-2.86.08-4.28l.22-8.57c.17-2.86.41-5.71.63-8.56l.33-4.25c.15-1.42.35-2.84.52-4.26l1.1-8.51 1.52-8.46c.26-1.4.5-2.81.78-4.22l1-4.18c.66-2.78 1.28-5.58 2-8.35 1.62-5.5 3-11.1 4.95-16.5.46-1.36.91-2.72 1.36-4.08l.68-2c.23-.68.51-1.33.75-2l3.08-7.97A246.94 246.94 0 0 1 36.47 121 308 308 0 0 1 59 89.39a217.12 217.12 0 0 1 36.51-34.86q-1.7 1.57-3.5 3.13l-3.57 3.25-3.66 3.23L83 65.75c-.61.54-1.18 1.12-1.77 1.67a254.07 254.07 0 0 0-56 75.29 237.36 237.36 0 0 0-15.51 41.94 249.22 249.22 0 0 0-7.5 43.94c-.14 2.19-.3 4.34-.47 6.48-.09 1.07-.18 2.13-.26 3.19s-.09 2.12-.13 3.17c-.07 2.12-.15 4.22-.22 6.33l-.09 3.16c0 1.06.05 2.12.08 3.18.08 2.58.25 6 .73 5.49s.31-3.37.21-5.28c-.56-15.89 1.2-31.82 3.92-47.55a232.49 232.49 0 0 1 7-29c.75-2.38 1.59-4.72 2.38-7.08l1.22-3.53c.2-.59.39-1.19.62-1.77l.68-1.73c1.87-4.62 3.59-9.29 5.74-13.78l1.8-3.89c.62-1.29 1.18-2.59 1.82-3.83l3.74-7.57.95-1.89c.33-.62.68-1.23 1-1.85l2.06-3.65c2.67-5 5.78-9.67 8.8-14.44.37-.6.77-1.18 1.18-1.75l1.22-1.73 2.44-3.45 2.46-3.44c.84-1.13 1.73-2.23 2.59-3.34 1.75-2.21 3.48-4.44 5.26-6.62L64.48 86c1.81-2.16 3.8-4.16 5.75-6.19l2.93-3 1.46-1.51c.5-.5 1-1 1.53-1.46L82.29 68c1-1 2.09-1.89 3.16-2.8l3.2-2.75 3.21-2.74c.53-.46 1.08-.9 1.64-1.32l1.66-1.3 6.66-5.09 6.88-4.86c1.15-.8 2.28-1.63 3.45-2.41l3.55-2.26 4.09-2.6 2-1.3 2.1-1.2 8.42-4.8 8.64-4.4 2.21-1.17 2.21-1 4.42-2 4.43-2 4.52-1.77 4.52-1.76 2.26-.87 2.3-.78 9.2-3.06 9.34-2.61 2.33-.64c.79-.2 1.58-.36 2.37-.55l4.72-.96 4.73-1.06c1.59-.31 3.18-.56 4.77-.84l4.77-.82c1.59-.26 3.18-.57 4.79-.73l9.6-1.14 1.2-.14 1.21-.08 2.41-.19 4.82-.33c1.6-.09 3.21-.23 4.81-.28l4.82-.07 4.82-.07h2.41l2.41.08 9.62.37a268.8 268.8 0 0 1 43.55 6.3 226 226 0 0 1 41.42 13.89 271.9 271.9 0 0 1 41.75 23.37 230.53 230.53 0 0 1 36.43 30.82 263.42 263.42 0 0 1 31.07 39.44 241.83 241.83 0 0 1 22.69 45 236.25 236.25 0 0 1 11.94 44 224.34 224.34 0 0 1 3.06 44.8A253.32 253.32 0 0 0 488 193c-.5-2.41-1.19-4.76-1.84-7.13l-2-7.1-2.32-7c-.77-2.33-1.52-4.67-2.45-6.94l-2.67-6.88-.67-1.71-.75-1.69-1.49-3.37-1.51-3.36c-.51-1.12-1-2.26-1.54-3.35l-3.33-6.58a243.69 243.69 0 0 0-77.13-87.98c22.58 16.5 43.2 36.88 59.21 60a245.57 245.57 0 0 1 21.35 37.5 237.45 237.45 0 0 1 14.78 42.4c-.81-1.8-1.55-3.63-2.26-5.49-.35-.93-.69-1.86-1-2.81s-.63-1.91-1-2.85c-.73-1.9-1.44-3.83-2.15-5.8-.34-1-.7-2-1.05-3-.18-.5-.35-1-.53-1.51l-.6-1.5q-1.72-4.35-3.46-8.68c-.27-.73-.6-1.43-.92-2.14l-.95-2.13-1.91-4.25c-1.22-2.86-2.67-5.6-4.06-8.38l-2.09-4.15c-.34-.7-.72-1.38-1.1-2.05l-1.14-2-2.29-4c-.77-1.34-1.48-2.73-2.33-4l-5-7.88c-.41-.66-.85-1.3-1.3-1.93l-1.33-1.91-2.68-3.81c-1.74-2.58-3.7-5-5.61-7.45l-3-3.83c-1-1.28-2.1-2.48-3.15-3.72l-3.16-3.69L430 89c-.54-.6-1.1-1.18-1.66-1.77-2.22-2.36-4.43-4.74-6.68-7.08l-7-6.76A232.81 232.81 0 0 0 384 49.3c-1.95-1.25-4-2.59-6.05-3.85l-1.52-.93q-.78-.42-1.56-.81c-1-.52-2-1-3-1.41a24.23 24.23 0 0 0 2.52 2c.5.36 1 .72 1.59 1.1s1.1.8 1.68 1.21c2.33 1.62 4.9 3.27 7.19 4.71A207.3 207.3 0 0 1 427.27 89l1.1 1.24 1 1.29 2.08 2.58 4.19 5.16 4 5.33c1.31 1.79 2.71 3.52 3.93 5.38l3.78 5.5c.63.92 1.29 1.82 1.88 2.76l1.77 2.84 3.55 5.66c.61.93 1.12 1.93 1.68 2.89l1.64 2.91 1.65 2.91c.53 1 1.13 1.93 1.61 2.94l3 6 1.51 3c.5 1 .92 2 1.38 3l2.7 6.1c.94 2 1.69 4.12 2.49 6.18l2.37 6.22c.73 2.09 1.38 4.21 2.06 6.31l1 3.15c.33 1.06.69 2.1.95 3.17.56 2.13 1.16 4.29 1.67 6.31.25 1 .48 2 .67 2.87.1.46.19.89.25 1.31s.1.82.13 1.2c.19 2.49-.2 3-.88 2a14.87 14.87 0 0 1-1.19-2.66c-.49-1.23-1.06-2.78-1.63-4.64-.75-2.39-1.45-4.82-2.27-7.23l-2.57-7.18c-.44-1.19-.83-2.41-1.31-3.59l-1.43-3.54c-1-2.36-1.87-4.74-2.85-7.07a255.19 255.19 0 0 0-15.58-30.5 250.26 250.26 0 0 0-19.86-27.91l-5.59-6.49c-.92-1.1-1.91-2.13-2.9-3.16l-3-3.11-3-3.11-3.1-3-3.1-3c-1-1-2.06-2-3.16-2.9l-6.49-5.6c-1.06-1-2.22-1.8-3.34-2.69l-3.38-2.64c-1.13-.87-2.24-1.77-3.39-2.62l-3.51-2.47-3.38-2.4-1.75-1.23c-.59-.4-1.21-.77-1.81-1.15-2.83-1.79-5.33-3.63-7.82-5.4a74.17 74.17 0 0 0-7.92-4.57c-2-1-4.21-1.94-6.37-3s-4.34-2.1-6.57-3.11l-6.77-2.88c-1.12-.47-2.24-1-3.37-1.38s-2.27-.8-3.4-1.17a269.83 269.83 0 0 1 34 17.37 222.61 222.61 0 0 1 30.6 22.6A225.3 225.3 0 0 1 451.7 133a19 19 0 0 1-1.9-2.07c-.7-.8-1.44-1.71-2.21-2.73s-1.56-2.13-2.39-3.34c-.41-.6-.82-1.22-1.25-1.86s-.85-1.3-1.33-1.95l-4.73-6.63-1.19-1.65-1.26-1.6-2.52-3.2-2.52-3.19-.63-.8-.67-.77-1.33-1.54-5.35-6.14a258.86 258.86 0 0 0-23.57-22.44 240.17 240.17 0 0 0-32.49-22.65 208.41 208.41 0 0 0-36-16.53 282.9 282.9 0 0 0-36.73-10l-4.36-.8c-1.45-.25-2.89-.57-4.36-.72l-8.77-1.11c-1.45-.21-2.92-.29-4.39-.4l-4.4-.3-4.35-.32-4.4-.07a216.59 216.59 0 0 0-35 2c0 .25-1.71.62-3.71.86l-3.77.47c-1.25.2-2.5.44-3.75.66l-7.49 1.34c0 .15.06.3.06.45a231.19 231.19 0 0 1 103.78 3.43 226.23 226.23 0 0 1 76.83 37.42c2 1.38 3.81 2.92 5.7 4.42l2.82 2.25 1.42 1.12.71.57.68.59 5.47 4.76 1.37 1.19c.46.39.92.79 1.35 1.22l2.63 2.5c1.74 1.68 3.54 3.31 5.25 5l5 5.24c.83.88 1.71 1.72 2.5 2.64l2.39 2.73c1.59 1.82 3.21 3.61 4.76 5.47a217.32 217.32 0 0 1 20.55 29.61l2.22 3.91c.74 1.31 1.49 2.6 2.14 4l4 8c1.25 2.73 2.44 5.48 3.66 8.22l.91 2.05c.28.69.54 1.4.81 2.1l1.62 4.2a228.78 228.78 0 0 1 10.12 33.66c.72 2.85 1.18 5.75 1.7 8.64s1.08 5.77 1.38 8.7.73 5.82 1.05 8.73zM261.54 480.94c-3.83.1-8.38.39-9.38 1.32 5.45-.24 10.89-.26 16.31-.79l4.06-.31 2-.15 2-.25 8.07-1c1.34-.15 2.67-.41 4-.65l4-.72 4-.75c.66-.11 1.32-.26 2-.43l2-.48q3.9-1 7.79-2c2.56-.78 5.09-1.62 7.61-2.46l-6.72 1.73c-.55.15-1.11.28-1.67.39l-1.68.35-3.37.72-3.37.73-1.68.36c-.56.12-1.13.2-1.7.3L289 478c-1.14.19-2.27.42-3.41.58l-3.43.43-6.85.88-.86.11-.86.07-1.72.13-3.45.27-3.44.27c-1.14.09-2.28.2-3.44.2zM45.93 145.28a75 75 0 0 0-4.54 8.72 235.45 235.45 0 0 0-16.69 50.17 240.15 240.15 0 0 0-4.89 52.69 219 219 0 0 0 6.7 49.76 227.19 227.19 0 0 0 18.79 50.27 233.68 233.68 0 0 0 76.19 85.6 238.69 238.69 0 0 0 49.11 25.29l1.1.42 1.11.38 2.24.74 4.45 1.45c1.58.51 2.45.6 2.66.43s-1-.78-2.3-1.28a123.2 123.2 0 0 0-5.67-2.09 235.4 235.4 0 0 1-42.58-20.2c-2.12-1.34-4.19-2.69-6.25-4.05-1-.68-2.06-1.34-3.06-2.05l-3-2.19-5.87-4.34c-1.92-1.54-3.86-3.07-5.84-4.59a240 240 0 0 0 75.9 39.59 226.1 226.1 0 0 0 53.51 9.51l2 .14c.66 0 1.33 0 2 .05l4 .08 4 .09 2 .05 2-.05 7.94-.21 2-.05 2-.15 4-.29 4-.29c.66-.05 1.32-.07 2-.16l2-.24 7.89-1c1.32-.13 2.62-.4 3.92-.62l3.92-.67 3.93-.67c1.31-.22 2.59-.56 3.89-.83l-2 .42c-.66.14-1.32.28-2 .38l-4 .66-4 .67c-1.34.22-2.67.47-4 .6l-8.07 1c-.67.08-1.34.18-2 .24l-2 .16-4.06.31c-5.4.54-10.84.54-16.27.73h-4l-4.07-.1-4.07-.1c-1.36-.06-2.71-.2-4.06-.29a227.8 227.8 0 0 1-66-14.48c-2.62-1.05-5.27-2.06-7.88-3.13l-7.73-3.5-1.93-.87-1.89-1-3.78-1.94-3.77-1.93c-1.25-.66-2.46-1.4-3.69-2.09l-3.68-2.12-1.84-1-.91-.53-.9-.58-7.14-4.58c-1.21-.74-2.34-1.59-3.49-2.4l-3.46-2.46c-1.15-.82-2.31-1.63-3.44-2.47l-3.34-2.62c-2.45-2-5-3.84-7.31-6l-3.55-3.1c-1.18-1-2.4-2-3.51-3.16l-6.8-6.52-6.5-6.8c-.41-.43-.84-.86-1.24-1.3l-1.18-1.35-2.36-2.71-2.73-2.73-1.18-1.36-1.11-1.41-4.43-5.64-1.12-1.37c-.36-.47-.69-1-1-1.46l-2.07-2.92a225.53 225.53 0 0 1-15.06-24.32l-3.21-6.38c-.53-1.07-1.09-2.12-1.59-3.2l-1.45-3.26-2.9-6.53-2.57-6.66-1.28-3.32c-.42-1.12-.76-2.26-1.15-3.39L33.45 320l-.28-.85-.24-.86-.48-1.72-1-3.44-1-3.43c-.15-.58-.33-1.15-.46-1.73l-.4-1.74a229.61 229.61 0 0 1-6.38-58.91l.2-7.42c.16-2.47.38-4.94.57-7.4l.29-3.71c0-.61.11-1.23.2-1.84l.23-1.84.95-7.37c.13-1.23.4-2.44.61-3.66l.66-3.66c.46-2.43.81-4.88 1.43-7.28l1.68-7.24c.15-.6.27-1.2.44-1.8l.51-1.79 1-3.57-1 3.37c-.33 1.13-.69 2.24-.94 3.39a228.53 228.53 0 0 0-5.35 86.15l.5 4.23.69 4.19.69 4.2.34 2.09.18 1.05.22 1c.59 2.77 1.17 5.53 1.76 8.29.16.69.28 1.39.46 2.07l.54 2 1.09 4.09c-.79-.29-1.62-3-2.3-5.37-.29-.92-.48-1.87-.71-2.8L27.6 304l-1.35-5.62a213.43 213.43 0 0 0 16.24 49.6c3.29 7 6.73 13.77 10.53 21.22l-4.42-7.52c-1.37-2.53-2.65-5.09-4-7.61l-1-1.89-.48-.95-.43-1-1.72-3.85c-.57-1.27-1.13-2.55-1.7-3.82-.27-.64-.58-1.26-.82-1.91l-.75-1.94-2.86-7.71c-.91-2.59-1.72-5.2-2.58-7.79-.42-1.3-.87-2.58-1.26-3.89l-1.08-3.93-1.1-3.92c-.35-1.31-.76-2.61-1-3.94a234.15 234.15 0 0 1-6.71-56.82c.07-3.65.13-7.25.2-10.91-.15 3.37-.3 6.79-.44 10.17l-.06 1.27V255.01c0 1.67 0 3.31-.09 4.93 0 1.09-.05 2.47 0 3.9s.22 2.91.34 4.23.22 2.45.33 3.78c.06.66.11 1.34.17 2l.09 1.05c0 .35.09.71.13 1.06.37 2.86.75 5.91 1.12 9.05.14 1.57.47 3.14.71 4.73s.51 3.19.77 4.78c.43 3.2 1.14 6.32 1.72 9.35l-1-4.22c-.15-.71-.33-1.41-.46-2.11l-.37-2.12q-.75-4.23-1.48-8.43c-.41-2.81-.73-5.62-1.09-8.42-.17-1.39-.38-2.78-.51-4.18s-.21-2.8-.32-4.19a231.37 231.37 0 0 1-.39-33.06q.3-4.06.61-8.13c.07-1.35.28-2.69.44-4l.51-4 .51-4c.08-.67.2-1.34.32-2l.36-2c.48-2.64.95-5.29 1.43-7.93s1.22-5.22 1.82-7.83c.32-1.3.6-2.6.94-3.9l1.12-3.84 1.12-3.85.56-1.92c.18-.64.38-1.28.61-1.9l2.64-7.55c.32-.88.6-1.78 1-2.66s.69-1.77 1-2.65l2.07-5.37c.36-.9.66-1.82 1.06-2.7l1.17-2.65 2.33-5.3c.3-.65.58-1.31.89-2l1-1.9zM186.14 30.17l-2.44.69-1.22.35-1.21.41-4.81 1.63-4.8 1.62-4.72 1.85c1.53-.46 3.1-1 4.73-1.54s3.35-1 5.1-1.65l3.82-1.28 1.92-.64 1.94-.55c.91-.37 1.95-.77 1.69-.89zm93.93 2.44c.14-.48-2.53-1-6.1-1.53-3.58-.36-8.06-.61-11.5-.88a237.7 237.7 0 0 0-55.1 3.89c.24.37.52.74.79 1.1 4.56-.76 9.08-1.71 13.69-2.17 2.29-.28 4.58-.58 6.88-.84l6.92-.5 3.45-.26c1.16-.08 2.31-.07 3.47-.1l6.93-.16h1.74l1.73.05 3.47.1 3.47.09c1.15.05 2.31 0 3.46.15l10.59.9c3.36.38 6.04.55 6.11.16zm-74.47-1.33v.33a234.51 234.51 0 0 1 55.21-3.91 225.08 225.08 0 0 1 38 5 197.77 197.77 0 0 1 43.52 15.48c1 .51 2.07 1 3.09 1.48s2 .9 3 1.41c2 1 3.9 1.91 5.85 2.85 1.15.46 2.29.9 2.11.56a10.82 10.82 0 0 0-2.89-2.09c-.82-.49-1.79-1-2.86-1.62l-1.69-.9-.89-.46-.94-.42A236.52 236.52 0 0 0 306.7 34.3a228.75 228.75 0 0 0-101.1-3.02z" transform="scale(1, 1) skewX(0)"/><path d="M350.46 21.72l-2.14-1-2.17-.89-4.35-1.76-4.35-1.76c-1.47-.55-2.95-1-4.43-1.57l-4.43-1.55c-1.48-.5-2.94-1.07-4.45-1.48l-9-2.67c-1.49-.47-3-.8-4.54-1.18L306 6.77l-4.57-1.09-4.61-.89-4.62-.87c-1.54-.28-3.07-.61-4.63-.8l-9.31-1.28c-1.48-.23-3-.34-4.45-.47L269.37 1 264.9.58c-.74-.08-1.49-.12-2.24-.14l-2.24-.09-9-.35c-3 0-6 .05-9 .08L238 .16l-4.47.28c-3 .22-6 .38-8.93.66-5.92.75-11.84 1.35-17.65 2.56l-4.3.82-2.15.4-2.13.5-8.52 2.05c-1.42.32-2.82.74-4.23 1.15l-4.2 1.23-4.2 1.24c-.71.2-1.4.43-2.09.67l-2.07.72-8.27 2.89-8.13 3.27c-1.35.56-2.72 1.07-4 1.67l-4 1.84-4 1.83c-1.32.62-2.65 1.21-3.93 1.91l-7.52 4-1.88 1-1.83 1.05-3.66 2.16c-5 2.76-9.67 5.88-14.61 8.65-1.67 1-4.73 3.22-5.61 4.74a244.88 244.88 0 0 1 129-45.74l2.15-.15c.72-.05 1.44-.1 2.16-.11l4.31-.09 4.31-.08H251.86l8.61.26 2.15.07c.72 0 1.44.05 2.15.12l4.3.34a248.42 248.42 0 0 1 34.1 5l8.39 2c.69.17 1.4.32 2.09.51l2.07.6 4.14 1.19c5.56 1.48 10.95 3.49 16.4 5.33 2.69 1 5.34 2.1 8 3.15l4 1.6 3.92 1.78 3.92 1.79 2 .89c.66.29 1.31.6 1.94.93l7.67 3.94c-2.69-1.6-5.45-3.16-8.3-4.71s-5.86-2.93-8.95-4.35zM89 413.57c-7.15-8.11-14.85-16.08-21.32-24.82-1.59-2.22-3.13-4.48-4.69-6.71l-1.17-1.67c-.4-.56-.79-1.12-1.14-1.7l-2.19-3.45-2.19-3.46-1.15-1.76-1-1.78-4.1-7.1c-.34-.58-.65-1.18-.95-1.78l-.91-1.81c-.61-1.21-1.21-2.42-1.81-3.64s-1.21-2.43-1.78-3.65-1.09-2.49-1.63-3.72l-1.65-3.7c-.55-1.22-1.16-2.42-1.65-3.67-1-2.46-2.12-4.88-3.29-7.25a211 211 0 0 0 21.75 43.72A231.54 231.54 0 0 0 89 413.57zM464.76 341.39l6.16-14.8c.51-1.15 1-2.31 1.42-3.5a36.85 36.85 0 0 0 1.2-3.68c.68-2.58 1.32-5.39 2-8.63-1.07 3.06-2 5.83-2.87 8.43l-.32 1c-.12.32-.23.63-.35.94-.23.63-.46 1.24-.69 1.85-.44 1.22-.87 2.42-1.3 3.6s-.81 2.38-1.22 3.57c-.18.6-.4 1.19-.64 1.78s-.44 1.19-.67 1.79c-.87 2.38-1.77 4.9-2.72 7.65zM425.82 390c1.58-1.72 3.22-3.47 4.78-5.33s3-3.87 4.52-5.88 2.92-4.12 4.33-6.26q1-1.62 2.1-3.24l1-1.64c.34-.55.65-1.12 1-1.69l3.86-6.81c.67-1.12 1.21-2.32 1.81-3.48l1.76-3.51 1.76-3.49c.56-1.17 1.07-2.37 1.61-3.54l3.21-7c.05-.12.19-1.1 0-.89a7.74 7.74 0 0 0-.59 1c-.26.46-.52.92-.58 1.08-1 2.61-2.11 5.05-3.2 7.38-.27.59-.53 1.17-.82 1.73l-.91 1.66-1.81 3.25c-2.32 4.33-5 8.3-7.45 12.77-.56 1.06-1.23 2.06-1.85 3.08l-1.9 3.05c-1.27 2-2.51 4.07-3.93 6l-4.18 5.93c-.35.5-.72 1-1.1 1.47l-1.14 1.44z" transform="scale(1, 1) skewX(0)"/></g></svg></g><g fill="#000" filter="url(#c116e60e-916d-42d0-a6f7-7cb36fd44c23)"><svg xmlns="http://www.w3.org/2000/svg" xmlns:xlink="http://www.w3.org/1999/xlink" width="48" height="48.426" x="6" y="6.053" class="image-svg-letter" viewBox="0.002 -0.004 47.52 54.44"><path d="M47.81-54.58L31.39-24.26L31.39-0.14L19.87-0.14L19.87-22.61L0.29-54.58L13.10-54.58L28.22-28.73L41.76-54.58L47.81-54.58Z" transform="translate(-0.28800000000000003 54.57600000000001)"/></svg></g><defs><filter id="c116e60e-916d-42d0-a6f7-7cb36fd44c23"><feGaussianBlur in="SourceGraphic" stdDeviation="1.26"/><feComponentTransfer><feFuncA tableValues="0 1 1 1 1 1 1 1 1 1 1 1 1 1 0" type="discrete"/></feComponentTransfer></filter></defs></mask></svg><defs><filter id="colors4520518234"><feColorMatrix class="icon-fecolormatrix" type="matrix" values="0 0 0 0 0.25390625 0 0 0 0 0.69921875 0 0 0 0 0.28515625 0 0 0 1 0"/></filter><filter id="colorsf8673697949"><feColorMatrix class="icon-fecolormatrix" type="matrix" values="0 0 0 0 0.99609375 0 0 0 0 0.99609375 0 0 0 0 0.99609375 0 0 0 1 0"/></filter><filter id="colorsb1773460511"><feColorMatrix class="icon-fecolormatrix" type="matrix" values="0 0 0 0 0 0 0 0 0 0 0 0 0 0 0 0 0 0 1 0"/></filter></defs></g><g><g class="tp-name iconsvg-namesvg" data-gra="path-name"><g><g><path transform="translate(13.74743705695058, 13.74743705695058) translate(34.36859130859375,75.7371826171875) scale(1.4000000000000004) translate(0, 0)"/></g></g></g></g></g></svg>